<svg width="11" height="22" viewBox="0 0 11 22" fill="none" xmlns="http://www.w3.org/2000/svg">
<g id="458940">
<g id="458939">
<circle id="Oval" cx="5.49935" cy="1.83333" r="1.83333" fill="black"/>
<path id="Path" d="M10.0434 14.275L7.33818 6.89663L7.32261 6.82074C7.32261 6.71305 7.41372 6.6258 7.52726 6.6258C7.62386 6.6258 7.70489 6.68987 7.72641 6.7753L9.56548 11.5485C9.68771 11.8216 10.1904 12.0029 10.5209 12.0029C10.9627 12.0029 11.0085 11.1418 10.9989 11.0941L9.15985 6.38769C9.00007 5.33299 7.92694 4.27783 6.70227 4.27783H4.30558C3.08091 4.27783 1.92811 5.33299 1.76834 6.38769L0.0116785 11.0941C-0.0281519 11.1845 0.0116785 12.0029 0.489185 12.0029C0.860478 12.0029 1.35447 11.8743 1.44466 11.5485L3.21871 6.75485C3.24971 6.67627 3.32643 6.6249 3.41145 6.6258C3.52453 6.6258 3.61564 6.71305 3.61564 6.82029L3.60282 6.88981L0.96715 14.275C0.962114 14.2968 0.96715 14.7071 0.96715 14.7294C0.96715 14.8866 1.34943 15.1838 1.51562 15.1838H3.21596V21.1344C3.21596 21.607 3.63533 22.0001 4.1316 22.0001C4.62788 22.0001 5.04725 21.6065 5.04725 21.1344V15.1797C5.04725 15.0511 5.96289 15.0552 5.96289 15.1838V21.0912C5.96289 21.5638 6.38271 22.0001 6.87853 22.0001C7.37572 22.0001 7.79417 21.5634 7.79417 21.0912V15.1838H9.56548C9.73121 15.1838 10.0434 14.8866 10.0434 14.7294C10.0434 14.693 10.0567 14.3063 10.0434 14.275Z" fill="black"/>
</g>
</g>
</svg>
