<svg xmlns="http://www.w3.org/2000/svg" width="28" height="24" viewBox="0 0 28 24" fill="none">
  <path fill-rule="evenodd" clip-rule="evenodd" d="M3.6651 0L24.3305 0.00437069C26.3511 0.00437069 27.9913 1.64775 27.9913 3.66701L28 16.8883C28 18.9076 26.3555 20.551 24.3349 20.551H23.0753V23.3745C23.0753 23.6061 22.9485 23.8159 22.7429 23.9252C22.538 24.035 22.2892 24.0232 22.0956 23.8946L17.0834 20.5466L3.6651 20.5422C1.64449 20.5422 0 18.8989 0 16.8796V3.66264C0 1.64338 1.64449 0 3.6651 0ZM24.3261 19.2922C25.6557 19.2922 26.736 18.2127 26.736 16.884V3.66701C26.736 2.33832 25.6557 1.25876 24.3261 1.25876L3.6651 1.25439C2.33552 1.25439 1.25523 2.33395 1.25523 3.66264L1.25086 16.8796C1.25086 18.2083 2.33115 19.2879 3.66073 19.2879L17.2715 19.2922C17.3983 19.2922 17.5164 19.3272 17.6214 19.3971L21.8157 22.1987V19.9172C21.8157 19.572 22.0956 19.2922 22.4411 19.2922H24.3261Z" fill="black"/>
  <path fill-rule="evenodd" clip-rule="evenodd" d="M8 11C8 7.68834 10.6926 5 14 5C17.3074 5 20 7.69258 20 11C20 14.3117 17.3074 17 14 17C10.6883 17 8 14.3074 8 11ZM9.21696 10.9958C9.21696 13.6375 11.3625 15.783 14 15.783C16.6375 15.783 18.783 13.6375 18.7873 11C18.7873 8.3583 16.6417 6.21272 14.0042 6.21272C11.3625 6.21272 9.21696 8.3583 9.21696 10.9958Z" fill="black"/>
  <path fill-rule="evenodd" clip-rule="evenodd" d="M14.0035 8.577C14.0035 8.25824 14.2257 8 14.5035 8C14.7777 8 15 8.25833 15 8.577C15 8.89567 14.7777 9.154 14.5035 9.154C14.2292 9.154 14.0035 8.89576 14.0035 8.577ZM14 9.97714C14 9.65837 14.2222 9.40013 14.4965 9.40013C14.7708 9.40013 14.9931 9.66241 14.9931 9.97714V13.423C14.9931 13.7417 14.7708 14 14.4965 14C14.2223 14 14 13.7417 14 13.423V9.97714Z" fill="black"/>
</svg>