<svg width="24" height="24" viewBox="0 0 24 24" fill="none" xmlns="http://www.w3.org/2000/svg">
<g id="Group 6">
<g id="Group 3">
<mask id="mask0_619_2790" style="mask-type:luminance" maskUnits="userSpaceOnUse" x="8" y="0" width="16" height="24">
<path id="Clip 2" fill-rule="evenodd" clip-rule="evenodd" d="M8 0H24V24H8V0Z" fill="white"/>
</mask>
<g mask="url(#mask0_619_2790)">
<path id="Fill 1" fill-rule="evenodd" clip-rule="evenodd" d="M15.5056 12.9968C15.5056 15.9418 15.5054 18.8868 15.5057 21.8319C15.5058 22.3959 15.7994 22.6012 16.3413 22.4203C18.2198 21.7934 20.0985 21.1671 21.9773 20.5409C22.4103 20.3965 22.5002 20.2758 22.5002 19.8324C22.5003 13.9422 22.5004 8.05191 22.5002 2.16159C22.5002 1.59858 22.2191 1.3935 21.6882 1.57074C19.8025 2.20022 17.917 2.83055 16.0316 3.46097C15.5704 3.61519 15.5057 3.70453 15.5057 4.18481C15.5055 7.12214 15.5056 10.0595 15.5056 12.9968ZM15.7047 24C15.4024 23.864 15.0719 23.7688 14.804 23.5832C14.2946 23.2305 14.0331 22.7123 14.0123 22.088C14.0006 21.7379 14.0102 21.3871 14.0102 21H13.7445C12.7682 21 11.7918 21.0016 10.8154 20.9996C9.21434 20.9964 8.01804 19.8051 8.00763 18.2039C8.00463 17.7352 8.00384 17.2664 8.00819 16.7977C8.01255 16.3336 8.32267 16.0019 8.74708 15.9976C9.16452 15.9932 9.4961 16.3308 9.50449 16.7869C9.51311 17.2554 9.5035 17.7243 9.50763 18.1931C9.51461 18.9785 10.0348 19.4972 10.8193 19.4994C11.8035 19.502 12.7877 19.5002 13.7719 19.4996C13.8406 19.4995 13.9094 19.4936 14.0059 19.4891V19.1815C14.0059 14.1659 14.0054 9.15028 14.0062 4.1347C14.0063 3.06919 14.5066 2.38224 15.5138 2.05163C15.8545 1.93978 16.1933 1.82222 16.533 1.70733C16.6933 1.65309 16.8535 1.59895 17.0107 1.5H16.8204C14.8364 1.5 12.8525 1.49948 10.8685 1.50028C10.0198 1.50061 9.51077 2.00616 9.50711 2.85103C9.5051 3.31195 9.51311 3.77302 9.50364 4.2338C9.49638 4.58766 9.28445 4.86933 8.98043 4.96374C8.67861 5.05749 8.35285 4.96233 8.16581 4.70428C8.09523 4.60692 8.02418 4.48111 8.02263 4.3673C8.01349 3.696 7.967 3.01786 8.04194 2.3543C8.17405 1.18444 9.09525 0.267422 10.2542 0.0456563C10.3067 0.0355781 10.3574 0.0154688 10.4089 0H22.266C22.5946 0.1515 22.9475 0.266203 23.2461 0.463266C23.6736 0.7455 23.8652 1.20698 24 1.6875V20.2969C23.7783 21.2807 23.1155 21.7731 22.1846 22.0638C20.218 22.6781 18.2698 23.3511 16.314 24H15.7047Z" fill="black"/>
</g>
</g>
<path id="Fill 4" fill-rule="evenodd" clip-rule="evenodd" d="M0 10.3418C0.180693 9.91441 0.503353 9.77133 0.95974 9.77404C3.33342 9.78803 5.70724 9.78054 8.08101 9.78054H8.36988C8.28558 9.68938 8.23652 9.63278 8.18383 9.57983C7.43783 8.83018 6.68951 8.08286 5.94616 7.33054C5.70505 7.08657 5.64817 6.75353 5.7799 6.47031C5.91069 6.18901 6.2125 5.99214 6.51626 6.05131C6.69514 6.08616 6.8911 6.17783 7.01966 6.30492C8.25305 7.52377 9.47503 8.75426 10.6971 9.98462C11.0171 10.3068 11.0204 10.746 10.7006 11.0683C9.47377 12.3049 8.24393 13.5384 7.01124 14.7691C6.68364 15.0961 6.23131 15.1015 5.93085 14.7994C5.62713 14.494 5.64198 14.0327 5.97465 13.6966C6.70771 12.9561 7.4443 12.219 8.17909 11.4801C8.23224 11.4267 8.28223 11.3701 8.3689 11.2773H8.08246C5.70868 11.2773 3.33486 11.2696 0.961183 11.2841C0.503632 11.2868 0.182741 11.1411 0 10.716V10.3418Z" fill="black"/>
</g>
</svg>
