<svg xmlns="http://www.w3.org/2000/svg" width="24" height="24" viewBox="0 0 24 24" fill="none">
  <mask id="mask0_625_83590" style="mask-type:luminance" maskUnits="userSpaceOnUse" x="8" y="0" width="16" height="24">
    <path fill-rule="evenodd" clip-rule="evenodd" d="M8 0H24V24H8V0Z" fill="white"/>
  </mask>
  <g mask="url(#mask0_625_83590)">
    <path fill-rule="evenodd" clip-rule="evenodd" d="M15.5056 12.9968C15.5056 15.9418 15.5054 18.8868 15.5057 21.8319C15.5058 22.3959 15.7994 22.6012 16.3413 22.4203C18.2198 21.7934 20.0985 21.1671 21.9773 20.5409C22.4103 20.3965 22.5002 20.2758 22.5002 19.8324C22.5003 13.9422 22.5004 8.05191 22.5002 2.16159C22.5002 1.59858 22.2191 1.3935 21.6882 1.57074C19.8025 2.20022 17.917 2.83055 16.0316 3.46097C15.5704 3.61519 15.5057 3.70453 15.5057 4.18481C15.5055 7.12214 15.5056 10.0595 15.5056 12.9968ZM15.7047 24C15.4024 23.864 15.0719 23.7688 14.804 23.5832C14.2946 23.2305 14.0331 22.7123 14.0123 22.088C14.0006 21.7379 14.0102 21.3871 14.0102 21H13.7445C12.7682 21 11.7918 21.0016 10.8154 20.9996C9.21434 20.9964 8.01804 19.8051 8.00763 18.2039C8.00463 17.7352 8.00384 17.2664 8.00819 16.7977C8.01255 16.3336 8.32267 16.0019 8.74708 15.9976C9.16452 15.9932 9.4961 16.3308 9.50449 16.7869C9.51311 17.2554 9.5035 17.7243 9.50763 18.1931C9.51461 18.9785 10.0348 19.4972 10.8193 19.4994C11.8035 19.502 12.7877 19.5002 13.7719 19.4996C13.8406 19.4995 13.9094 19.4936 14.0059 19.4891V19.1815C14.0059 14.1659 14.0054 9.15028 14.0062 4.1347C14.0063 3.06919 14.5066 2.38224 15.5138 2.05163C15.8545 1.93978 16.1933 1.82222 16.533 1.70733C16.6933 1.65309 16.8535 1.59895 17.0107 1.5H16.8204C14.8364 1.5 12.8525 1.49948 10.8685 1.50028C10.0198 1.50061 9.51077 2.00616 9.50711 2.85103C9.5051 3.31195 9.51311 3.77302 9.50364 4.2338C9.49638 4.58766 9.28445 4.86933 8.98043 4.96374C8.67861 5.05749 8.35285 4.96233 8.16581 4.70428C8.09523 4.60692 8.02418 4.48111 8.02263 4.3673C8.01349 3.696 7.967 3.01786 8.04194 2.3543C8.17405 1.18444 9.09525 0.267422 10.2542 0.0456563C10.3067 0.0355781 10.3574 0.0154688 10.4089 0H22.266C22.5946 0.1515 22.9475 0.266203 23.2461 0.463266C23.6736 0.7455 23.8652 1.20698 24 1.6875V20.2969C23.7783 21.2807 23.1155 21.7731 22.1846 22.0638C20.218 22.6781 18.2698 23.3511 16.314 24H15.7047Z" fill="black"/>
  </g>
  <path fill-rule="evenodd" clip-rule="evenodd" d="M10.9395 10.7193C10.7588 11.1467 10.4361 11.2898 9.97971 11.2871C7.60603 11.2731 5.23221 11.2806 2.85844 11.2806H2.56957C2.65387 11.3718 2.70293 11.4284 2.75562 11.4813C3.50162 12.231 4.24995 12.9783 4.99329 13.7306C5.2344 13.9746 5.29128 14.3076 5.15955 14.5908C5.02876 14.8721 4.72695 15.069 4.42319 15.0098C4.24431 14.975 4.04835 14.8833 3.91979 14.7562C2.68641 13.5374 1.46442 12.3069 0.242348 11.0765C-0.0776587 10.7544 -0.0809174 10.3151 0.238856 9.99287C1.46568 8.75629 2.69553 7.52271 3.92822 6.29208C4.25581 5.96503 4.70815 5.95965 5.00861 6.26176C5.31232 6.56715 5.29747 7.02849 4.9648 7.36452C4.23175 8.1051 3.49515 8.84217 2.76037 9.58107C2.70721 9.63448 2.65722 9.69103 2.57055 9.78383H2.857C5.23077 9.78383 7.60459 9.79155 9.97827 9.7771C10.4358 9.77434 10.7567 9.92004 10.9395 10.3451V10.7193Z" fill="black"/>
</svg>