<?xml version="1.0" encoding="UTF-8"?>
<svg id="Layer_2" data-name="Layer 2" xmlns="http://www.w3.org/2000/svg" viewBox="0 0 452.85 456.27">
  <defs>
    <style>
      .cls-1 {
        fill: #ed2c7c;
      }

      .cls-1, .cls-2 {
        stroke-width: 0px;
      }

      .cls-2 {
        fill: #414042;
      }
    </style>
  </defs>
  <g id="Layer_1-2" data-name="Layer 1">
    <g>
      <g>
        <path class="cls-2" d="M222.46,98.87l1.07,1.07c2.47,2.47,6.51,2.47,8.98,0l1.07-1.07c.93-.93,1.51-2.09,1.74-3.31.39-2-.19-4.16-1.73-5.71l-1.08-1.08c-2.47-2.47-6.51-2.47-8.98,0l-1.08,1.08c-1.24,1.24-1.86,2.88-1.85,4.51,0,1.63.61,3.27,1.85,4.5Z"/>
        <path class="cls-2" d="M254.25,110.55c-2.47-2.47-6.51-2.47-8.98,0l-1.07,1.08c-2.47,2.47-2.47,6.51,0,8.98l1.07,1.07c2.47,2.47,6.51,2.47,8.98,0l1.07-1.07c2.47-2.47,2.47-6.51,0-8.98l-1.07-1.07Z"/>
        <path class="cls-2" d="M275.98,132.27c-2.47-2.47-6.51-2.47-8.98,0l-1.07,1.07c-2.47,2.47-2.47,6.51,0,8.98l1.08,1.08c2.47,2.47,6.51,2.47,8.98,0l1.08-1.08c2.47-2.47,2.47-6.51,0-8.98l-1.08-1.08Z"/>
        <path class="cls-2" d="M297.71,154.01c-2.47-2.47-6.51-2.47-8.98,0l-1.08,1.08c-2.47,2.47-2.47,6.51,0,8.98l1.08,1.08c2.47,2.47,6.51,2.47,8.98,0l1.08-1.07c2.47-2.47,2.47-6.51,0-8.98l-1.08-1.07Z"/>
        <path class="cls-2" d="M314.19,174.2h1.52c3.5,0,6.35,2.84,6.35,6.35v1.52c0,3.5-2.84,6.35-6.35,6.35h-1.52c-3.51,0-6.35-2.85-6.35-6.35v-1.51c0-3.51,2.85-6.35,6.35-6.35Z" transform="translate(-35.97 275.73) rotate(-44.99)"/>
        <path class="cls-2" d="M333.36,199.72c-1.82,1.82-1.82,4.81,0,6.63s4.81,1.82,6.63,0c1.82-1.82,1.82-4.81,0-6.63-1.82-1.82-4.81-1.82-6.63,0Z"/>
        <path class="cls-2" d="M201.8,121.68c2.47,2.47,6.51,2.47,8.98,0l1.07-1.07c2.47-2.47,2.47-6.51,0-8.98l-1.07-1.07c-2.47-2.47-6.51-2.47-8.98,0l-1.08,1.08c-2.47,2.47-2.47,6.51,0,8.98l1.07,1.07Z"/>
        <path class="cls-1" d="M227.26,130.73h1.52c3.5,0,6.35,2.84,6.35,6.35v1.52c0,3.5-2.85,6.35-6.35,6.35h-1.52c-3.51,0-6.35-2.85-6.35-6.35v-1.52c0-3.5,2.84-6.35,6.35-6.35Z" transform="translate(-30.68 201.6) rotate(-45)"/>
        <path class="cls-2" d="M254.24,154.01c-2.47-2.47-6.51-2.47-8.98,0l-1.07,1.07c-2.47,2.47-2.47,6.51,0,8.98l1.07,1.08c2.47,2.47,6.51,2.47,8.98,0l1.07-1.07c2.47-2.47,2.47-6.51,0-8.98l-1.08-1.07Z"/>
        <path class="cls-2" d="M270.73,174.19h1.52c3.51,0,6.35,2.85,6.35,6.35v1.52c0,3.5-2.85,6.35-6.35,6.35h-1.52c-3.5,0-6.35-2.84-6.35-6.35v-1.52c0-3.51,2.85-6.35,6.35-6.35Z" transform="translate(-48.68 245.1) rotate(-45)"/>
        <path class="cls-2" d="M289.9,199.72c-1.82,1.82-1.82,4.81,0,6.63,1.82,1.82,4.81,1.82,6.63,0,1.82-1.82,1.82-4.81,0-6.63-1.82-1.82-4.81-1.82-6.63,0Z"/>
        <path class="cls-2" d="M311.63,221.45c-1.83,1.83-1.83,4.81,0,6.63,1.83,1.82,4.81,1.82,6.63,0,1.82-1.82,1.82-4.81,0-6.63s-4.81-1.83-6.63,0Z"/>
        <path class="cls-2" d="M189.05,132.27c-2.47-2.47-6.51-2.47-8.98,0l-1.08,1.08c-2.47,2.47-2.47,6.51,0,8.98l1.08,1.08c2.47,2.47,6.51,2.47,8.98,0l1.08-1.08c2.47-2.47,2.47-6.51,0-8.98l-1.08-1.08Z"/>
        <path class="cls-2" d="M210.79,154.01c-2.47-2.47-6.51-2.47-8.98,0l-1.08,1.08c-2.47,2.47-2.47,6.51,0,8.98l1.08,1.08c2.47,2.47,6.51,2.47,8.98,0l1.08-1.08c2.47-2.47,2.47-6.51,0-8.98l-1.07-1.07Z"/>
        <path class="cls-2" d="M232.51,175.73c-2.47-2.47-6.51-2.47-8.98,0l-1.08,1.08c-2.47,2.47-2.47,6.51,0,8.98l1.08,1.08c2.47,2.47,6.51,2.47,8.98,0l1.08-1.08c2.47-2.47,2.47-6.51,0-8.98l-1.08-1.08Z"/>
        <path class="cls-2" d="M246.44,199.72c-1.83,1.82-1.83,4.81,0,6.63,1.83,1.82,4.81,1.82,6.63,0s1.82-4.81,0-6.63c-1.82-1.82-4.81-1.82-6.63,0Z"/>
        <path class="cls-2" d="M268.17,221.45c-1.83,1.83-1.83,4.81,0,6.64,1.82,1.82,4.81,1.82,6.64,0,1.83-1.82,1.83-4.81,0-6.64s-4.81-1.83-6.64,0Z"/>
        <path class="cls-2" d="M289.9,243.18c-1.83,1.82-1.83,4.81,0,6.64,1.83,1.83,4.81,1.83,6.64,0,1.82-1.83,1.82-4.81,0-6.64-1.82-1.82-4.81-1.82-6.64,0Z"/>
        <path class="cls-2" d="M167.32,154.01c-2.47-2.47-6.51-2.47-8.98,0l-1.08,1.07c-2.47,2.47-2.47,6.51,0,8.98l1.08,1.07c2.47,2.47,6.51,2.47,8.98,0l1.08-1.08c2.47-2.47,2.47-6.51,0-8.98l-1.08-1.08Z"/>
        <path class="cls-2" d="M183.8,174.19h1.52c3.5,0,6.35,2.84,6.35,6.35v1.52c0,3.51-2.85,6.35-6.35,6.35h-1.52c-3.5,0-6.35-2.84-6.35-6.35v-1.52c0-3.51,2.85-6.35,6.35-6.35Z" transform="translate(-74.14 183.55) rotate(-44.99)"/>
        <path class="cls-2" d="M202.97,199.72c-1.83,1.83-1.83,4.81,0,6.64,1.83,1.83,4.81,1.83,6.64,0,1.83-1.83,1.83-4.81,0-6.64-1.83-1.83-4.81-1.83-6.64,0Z"/>
        <path class="cls-2" d="M224.71,221.45c-1.83,1.83-1.83,4.81,0,6.64,1.83,1.83,4.81,1.83,6.64,0,1.83-1.83,1.83-4.81,0-6.64-1.83-1.83-4.81-1.83-6.64,0Z"/>
        <path class="cls-2" d="M246.44,243.18c-1.83,1.82-1.83,4.81,0,6.64,1.82,1.83,4.81,1.82,6.63,0,1.83-1.83,1.83-4.81,0-6.64s-4.81-1.82-6.63,0Z"/>
        <path class="cls-2" d="M269.88,266.62c-.89.89-.89,2.33,0,3.22.89.88,2.33.88,3.22,0,.88-.88.88-2.33,0-3.22s-2.33-.89-3.22,0Z"/>
        <path class="cls-2" d="M145.59,175.74c-2.47-2.47-6.51-2.47-8.98,0l-1.07,1.07c-2.47,2.47-2.47,6.51,0,8.98l1.08,1.08c2.47,2.47,6.51,2.47,8.98,0l1.08-1.08c2.47-2.47,2.47-6.51,0-8.98l-1.07-1.07Z"/>
        <path class="cls-2" d="M166.15,206.35c1.83-1.82,1.83-4.81,0-6.63-1.83-1.82-4.81-1.82-6.64,0-1.82,1.82-1.82,4.81,0,6.63,1.82,1.82,4.81,1.82,6.64,0Z"/>
        <path class="cls-2" d="M181.24,221.45c-1.83,1.83-1.82,4.81,0,6.64,1.83,1.82,4.81,1.82,6.64,0,1.83-1.82,1.82-4.81,0-6.64s-4.81-1.83-6.64,0Z"/>
        <path class="cls-2" d="M202.98,243.18c-1.83,1.82-1.83,4.81,0,6.64s4.81,1.83,6.64,0c1.83-1.83,1.83-4.81,0-6.64-1.83-1.82-4.81-1.83-6.64,0Z"/>
        <path class="cls-2" d="M226.42,266.62c-.88.88-.88,2.33,0,3.22.88.88,2.33.88,3.22,0,.88-.88.88-2.33,0-3.22s-2.33-.88-3.22,0Z"/>
        <path class="cls-2" d="M248.15,288.35c-.88.88-.88,2.33,0,3.22.89.88,2.33.88,3.22,0s.88-2.33,0-3.22c-.89-.88-2.33-.88-3.22,0Z"/>
        <path class="cls-2" d="M116.05,199.72c-1.82,1.82-1.82,4.81,0,6.63,1.82,1.82,4.81,1.82,6.63,0s1.82-4.81,0-6.63c-1.82-1.82-4.81-1.82-6.63,0Z"/>
        <path class="cls-2" d="M137.78,221.45c-1.82,1.83-1.82,4.81,0,6.63,1.82,1.82,4.81,1.82,6.63,0,1.82-1.82,1.82-4.81,0-6.63-1.82-1.83-4.81-1.83-6.63,0Z"/>
        <path class="cls-2" d="M159.51,243.18c-1.82,1.82-1.82,4.81,0,6.64,1.82,1.83,4.81,1.83,6.64,0s1.83-4.81,0-6.64-4.81-1.82-6.64,0Z"/>
        <path class="cls-2" d="M182.95,266.62c-.89.89-.89,2.34,0,3.22.89.89,2.33.89,3.22,0,.88-.89.88-2.34,0-3.22-.88-.89-2.33-.89-3.22,0Z"/>
        <path class="cls-2" d="M204.69,288.35c-.88.88-.88,2.33,0,3.22.88.88,2.33.88,3.21,0,.88-.88.88-2.33,0-3.22-.88-.88-2.33-.88-3.21,0Z"/>
        <path class="cls-2" d="M226.42,310.08c-.88.88-.88,2.33,0,3.22s2.33.88,3.22,0,.88-2.33,0-3.22-2.33-.88-3.22,0Z"/>
        <path class="cls-2" d="M227.27.31h1.52c3.51,0,6.35,2.85,6.35,6.35v1.52c0,3.5-2.84,6.35-6.35,6.35h-1.52c-3.5,0-6.35-2.84-6.35-6.35v-1.52c0-3.51,2.85-6.35,6.35-6.35Z" transform="translate(61.53 163.4) rotate(-45)"/>
        <path class="cls-2" d="M254.25,23.59c-2.47-2.47-6.51-2.47-8.98,0l-1.07,1.08c-2.47,2.47-2.47,6.51,0,8.98l1.07,1.07c2.47,2.47,6.51,2.47,8.98,0l1.08-1.08c2.47-2.47,2.47-6.51,0-8.98l-1.07-1.07Z"/>
        <path class="cls-2" d="M275.98,45.31c-2.47-2.47-6.51-2.47-8.98,0l-1.07,1.07c-2.47,2.47-2.47,6.51,0,8.98l1.08,1.08c2.47,2.47,6.51,2.47,8.98,0l1.08-1.08c2.47-2.47,2.47-6.51,0-8.98l-1.08-1.08Z"/>
        <path class="cls-2" d="M297.71,67.05c-2.47-2.47-6.51-2.47-8.98,0l-1.08,1.08c-2.47,2.47-2.47,6.51,0,8.98l1.08,1.08c2.47,2.47,6.51,2.47,8.98,0l1.08-1.07c2.47-2.47,2.47-6.51,0-8.98l-1.08-1.08Z"/>
        <path class="cls-2" d="M314.19,87.24h1.52c3.51,0,6.35,2.85,6.35,6.35v1.51c0,3.5-2.85,6.35-6.35,6.35h-1.52c-3.5,0-6.35-2.84-6.35-6.35v-1.52c0-3.5,2.84-6.35,6.35-6.35Z" transform="translate(25.57 250.4) rotate(-45.01)"/>
        <path class="cls-2" d="M340,119.39c1.82-1.82,1.82-4.81,0-6.63-1.82-1.82-4.81-1.82-6.63,0-1.82,1.82-1.82,4.81,0,6.63,1.82,1.82,4.81,1.82,6.63,0Z"/>
        <path class="cls-2" d="M201.8,34.72c2.47,2.47,6.51,2.47,8.98,0l1.07-1.07c2.47-2.47,2.47-6.51,0-8.98l-1.07-1.07c-2.47-2.47-6.51-2.47-8.98,0l-1.08,1.08c-2.47,2.47-2.47,6.51,0,8.98l1.08,1.08Z"/>
        <path class="cls-2" d="M227.26,43.77h1.52c3.51,0,6.35,2.85,6.35,6.35v1.52c0,3.5-2.85,6.35-6.35,6.35h-1.52c-3.5,0-6.35-2.84-6.35-6.35v-1.52c0-3.5,2.85-6.35,6.35-6.35Z" transform="translate(30.82 176.16) rotate(-45.01)"/>
        <path class="cls-2" d="M245.27,78.18c2.47,2.47,6.51,2.47,8.98,0l1.07-1.07c2.47-2.47,2.47-6.51,0-8.98l-1.08-1.08c-2.47-2.47-6.51-2.47-8.98,0l-1.07,1.07c-2.47,2.47-2.47,6.51,0,8.98l1.07,1.08Z"/>
        <path class="cls-2" d="M267,99.91c2.47,2.47,6.51,2.47,8.98,0l1.08-1.08c2.47-2.47,2.47-6.51,0-8.98l-1.08-1.08c-2.47-2.47-6.51-2.47-8.98,0l-1.07,1.07c-2.47,2.47-2.47,6.51,0,8.98l1.07,1.07Z"/>
        <path class="cls-2" d="M296.54,119.39c1.82-1.82,1.82-4.81,0-6.63-1.82-1.82-4.81-1.82-6.63,0-1.82,1.82-1.82,4.81,0,6.63,1.82,1.82,4.81,1.82,6.63,0Z"/>
        <path class="cls-2" d="M311.63,134.49c-1.83,1.83-1.83,4.81,0,6.63,1.83,1.82,4.81,1.82,6.63,0s1.82-4.81,0-6.63c-1.82-1.83-4.81-1.83-6.63,0Z"/>
        <path class="cls-2" d="M189.05,45.31c-2.47-2.47-6.51-2.47-8.98,0l-1.08,1.08c-2.47,2.47-2.47,6.51,0,8.98l1.08,1.08c2.47,2.47,6.51,2.47,8.98,0l1.08-1.08c2.47-2.47,2.47-6.51,0-8.98l-1.07-1.07Z"/>
        <path class="cls-2" d="M210.79,67.05c-2.47-2.47-6.51-2.47-8.98,0l-1.08,1.08c-2.47,2.47-2.47,6.51,0,8.98l1.08,1.08c2.47,2.47,6.51,2.47,8.98,0l1.08-1.08c2.47-2.47,2.47-6.51,0-8.98l-1.07-1.07Z"/>
        <path class="cls-2" d="M167.32,67.05c-2.47-2.47-6.51-2.47-8.98,0l-1.08,1.08c-2.47,2.47-2.47,6.51,0,8.98l1.08,1.07c2.47,2.47,6.51,2.47,8.98,0l1.08-1.08c2.47-2.47,2.47-6.51,0-8.98l-1.08-1.08Z"/>
        <path class="cls-2" d="M183.8,87.23h1.52c3.5,0,6.35,2.84,6.35,6.35v1.52c0,3.51-2.85,6.35-6.35,6.35h-1.52c-3.5,0-6.35-2.84-6.35-6.35v-1.52c0-3.51,2.85-6.35,6.35-6.35Z" transform="translate(-12.67 158.09) rotate(-44.99)"/>
        <path class="cls-2" d="M136.61,99.91c2.47,2.47,6.51,2.47,8.98,0l1.08-1.07c2.47-2.47,2.47-6.51,0-8.98l-1.07-1.07c-2.47-2.47-6.51-2.47-8.98,0l-1.07,1.07c-2.47,2.47-2.47,6.51,0,8.98l1.07,1.07Z"/>
        <path class="cls-2" d="M166.15,119.39c1.83-1.82,1.83-4.81,0-6.63-1.83-1.82-4.81-1.82-6.64,0-1.82,1.82-1.82,4.81,0,6.63,1.82,1.82,4.81,1.82,6.64,0Z"/>
        <path class="cls-2" d="M116.05,112.76c-1.82,1.82-1.82,4.81,0,6.63,1.82,1.82,4.81,1.82,6.63,0,1.82-1.82,1.82-4.81,0-6.63-1.82-1.82-4.81-1.82-6.63,0Z"/>
        <path class="cls-2" d="M137.78,134.49c-1.82,1.83-1.82,4.81,0,6.63s4.81,1.82,6.63,0c1.82-1.82,1.82-4.81,0-6.63-1.82-1.83-4.81-1.83-6.63,0Z"/>
      </g>
      <g id="text">
        <path class="cls-2" d="M56.06,454.59h-.01c-1.73-.02-3.12-1.44-3.1-3.16l.58-65.22c.02-1.72,1.43-3.11,3.15-3.11h.01c1.73.02,3.12,1.43,3.11,3.16l-.58,65.22c-.02,1.73-1.43,3.11-3.15,3.11Z"/>
        <path class="cls-2" d="M89.06,455.27c-1.15,0-2.25-.65-2.79-1.75l-32.42-65.91c-.76-1.55-.13-3.43,1.42-4.19,1.55-.77,3.43-.12,4.2,1.43l32.42,65.91c.76,1.55.12,3.42-1.43,4.19-.45.22-.93.32-1.39.32Z"/>
        <path class="cls-2" d="M122.06,454.91c-1.73,0-3.12-1.4-3.12-3.13l.06-65.23c0-1.73,1.41-3.12,3.14-3.13h.02c1.72,0,3.11,1.41,3.11,3.14l-.06,65.22c0,1.73-1.41,3.13-3.13,3.12h-.01Z"/>
        <path class="cls-2" d="M142.34,455.01c-.39,0-.77-.08-1.14-.22-1.61-.63-2.4-2.45-1.76-4.06l25.19-64.05c.62-1.62,2.45-2.4,4.05-1.77,1.6.63,2.4,2.45,1.77,4.06l-25.18,64.05c-.49,1.24-1.68,1.99-2.93,1.99Z"/>
        <path class="cls-2" d="M192.06,455.25c-1.24,0-2.43-.77-2.9-2.01l-24.56-64.3c-.62-1.62.19-3.43,1.81-4.05,1.61-.62,3.43.19,4.04,1.81l24.55,64.3c.62,1.62-.19,3.42-1.8,4.04-.37.14-.75.2-1.14.2Z"/>
        <path class="cls-2" d="M215.62,455.37c-1.73,0-3.12-1.4-3.12-3.13l.07-65.23c0-1.72,1.4-3.12,3.13-3.13h.01c1.72,0,3.12,1.41,3.12,3.13l-.07,65.23c0,1.72-1.4,3.13-3.13,3.13h-.02Z"/>
        <path class="cls-2" d="M5.17,454.34c-1.72-.01-3.11-1.41-3.11-3.14l.06-46.74c0-1.72,1.41-3.12,3.14-3.12h.01c1.72,0,3.12,1.4,3.11,3.13l-.06,46.74c0,1.73-1.4,3.13-3.14,3.13h-.01Z"/>
        <path class="cls-2" d="M15.05,418.77c.02-1.72,1.42-3.11,3.13-3.11l19.81-.16c1.72,0,3.12,1.4,3.12,3.13h0c0,1.73-1.4,3.13-3.13,3.13l-19.8.16c-1.73,0-3.13-1.41-3.13-3.14h0Z"/>
        <path class="cls-1" d="M166,437.13c-2.88-.01-5.22-2.36-5.2-5.24.02-2.89,2.35-5.21,5.23-5.2h.02c2.88.02,5.21,2.36,5.19,5.25-.02,2.88-2.36,5.21-5.24,5.19Z"/>
        <path class="cls-1" d="M5.21,391.11c-2.88,0-5.22-2.36-5.21-5.24.02-2.89,2.35-5.21,5.24-5.2h.02c2.88.02,5.21,2.36,5.19,5.25-.01,2.88-2.36,5.21-5.24,5.19Z"/>
        <path class="cls-2" d="M223.97,421.75c-.71,0-1.42-.25-2.01-.74-1.31-1.13-1.47-3.1-.35-4.42l26.72-31.44c1.12-1.31,3.1-1.48,4.41-.36,1.33,1.12,1.48,3.11.36,4.42l-26.73,31.43c-.63.74-1.51,1.1-2.4,1.1Z"/>
        <path class="cls-2" d="M251.29,455.54c-.91,0-1.8-.4-2.42-1.15l-27.32-33.79c-1.09-1.35-.88-3.32.46-4.41,1.35-1.08,3.32-.88,4.41.47l27.31,33.78c1.08,1.35.88,3.32-.47,4.41-.58.47-1.28.7-1.98.69Z"/>
        <path class="cls-2" d="M275.62,455.67c-1.73,0-3.12-1.41-3.12-3.13l.06-65.23c0-1.72,1.41-3.12,3.14-3.13h0c1.72,0,3.12,1.4,3.12,3.13l-.07,65.23c0,1.72-1.4,3.13-3.13,3.13h-.02Z"/>
        <path class="cls-2" d="M275.68,390.45c-1.72,0-3.11-1.4-3.12-3.12,0-1.74,1.39-3.14,3.13-3.15l30.1-.11h.03c1.72,0,3.11,1.39,3.11,3.11.01,1.73-1.39,3.14-3.11,3.15l-30.11.11h-.02Z"/>
        <path class="cls-2" d="M275.62,455.67c-1.72,0-3.12-1.4-3.12-3.12,0-1.73,1.39-3.14,3.12-3.14l31.42-.11h.02c1.72,0,3.11,1.4,3.11,3.12.02,1.74-1.39,3.14-3.12,3.14l-31.4.11h-.03Z"/>
        <path class="cls-2" d="M398.52,456.27c-1.74,0-3.12-1.41-3.12-3.13l.06-65.23c0-1.72,1.4-3.12,3.12-3.13h0c1.73,0,3.13,1.41,3.13,3.14l-.06,65.23c0,1.73-1.41,3.13-3.14,3.13h0Z"/>
        <path class="cls-2" d="M89.06,455.27c-.47,0-.95-.11-1.39-.33-1.55-.77-2.17-2.66-1.38-4.2l33.06-65.59c.77-1.54,2.66-2.17,4.19-1.38,1.55.77,2.17,2.66,1.39,4.2l-33.05,65.58c-.56,1.1-1.66,1.73-2.82,1.72Z"/>
        <path class="cls-1" d="M288.68,425.2h-.02c-2.88-.02-5.2-2.36-5.19-5.24.02-2.88,2.36-5.2,5.24-5.19,2.88.01,5.22,2.36,5.21,5.24-.02,2.88-2.35,5.2-5.23,5.19Z"/>
        <path class="cls-2" d="M349.44,456.11c-13.87-.07-24.47-9.18-25.76-22.15-.01-.1-.02-.21-.02-.31l-.03-46.09c0-1.77,1.43-3.21,3.22-3.21h.02c1.77.01,3.19,1.44,3.19,3.21l.02,45.92c1.04,9.65,8.81,16.15,19.39,16.2,9.89.04,17.79-5.41,19.78-13.6l.04-48.29c0-1.78,1.44-3.21,3.21-3.21h.02c1.77.01,3.19,1.44,3.2,3.21l-.03,48.67c0,.23-.02.47-.07.69-2.54,11.41-13.05,19.03-26.17,18.96Z"/>
        <path class="cls-2" d="M423.99,443.35c-15.85-.08-28.68-13.03-28.6-28.87.08-15.85,13.04-28.67,28.88-28.59,15.84.07,28.66,13.03,28.58,28.87-.07,15.84-13.03,28.66-28.86,28.59ZM424.23,392.15c-12.39-.06-22.51,9.97-22.58,22.36-.06,12.39,9.97,22.51,22.36,22.57,12.39.06,22.52-9.97,22.58-22.35.06-12.39-9.97-22.52-22.36-22.58Z"/>
      </g>
    </g>
  </g>
</svg>