<svg width="80" height="80" viewBox="0 0 80 80" fill="none" xmlns="http://www.w3.org/2000/svg">
<path fill-rule="evenodd" clip-rule="evenodd" d="M40.2497 16.6067L40.3944 16.751C40.7274 17.083 41.2721 17.083 41.6051 16.7509L41.7496 16.6069C41.8755 16.4811 41.9536 16.3253 41.9842 16.1619C42.0365 15.8923 41.9586 15.602 41.7505 15.3943L41.6049 15.2491C41.2721 14.917 40.7275 14.917 40.3947 15.2491L40.2494 15.3942C40.0822 15.5611 39.9992 15.7813 40 16.0012C39.9996 16.2207 40.0828 16.4402 40.2497 16.6067Z" fill="#404042"/>
<path fill-rule="evenodd" clip-rule="evenodd" d="M44.6056 19.2498C44.2727 18.9168 43.7278 18.9167 43.3948 19.2497L43.2498 19.3947C42.9167 19.7277 42.9167 20.2727 43.2498 20.6058L43.3941 20.7501C43.727 21.0832 44.2719 21.0833 44.6051 20.7503L44.75 20.6055C45.0832 20.2725 45.0833 19.7277 44.7503 19.3946L44.6056 19.2498Z" fill="#404042"/>
<path fill-rule="evenodd" clip-rule="evenodd" d="M48.605 23.2495C48.2721 22.9167 47.7273 22.9169 47.3945 23.2496L47.2497 23.3944C46.9169 23.7273 46.9167 24.2721 47.2496 24.6051L47.3946 24.7503C47.7274 25.0832 48.2719 25.0833 48.6049 24.7504L48.7503 24.6048C49.0833 24.2719 49.0832 23.7274 48.7502 23.3947L48.605 23.2495Z" fill="#404042"/>
<path fill-rule="evenodd" clip-rule="evenodd" d="M52.6054 27.2497C52.2725 26.9168 51.7278 26.9167 51.3949 27.2496L51.2497 27.3948C50.9168 27.7277 50.9168 28.2724 51.2497 28.6052L51.3949 28.7504C51.7278 29.0833 52.2725 29.0832 52.6054 28.7503L52.7503 28.6053C53.0832 28.2724 53.0832 27.7276 52.7503 27.3947L52.6054 27.2497Z" fill="#404042"/>
<path fill-rule="evenodd" clip-rule="evenodd" d="M56.6059 31.2499C56.2729 30.9167 55.7277 30.9167 55.3946 31.2497L55.2499 31.3944C54.9167 31.7274 54.9167 32.2723 55.2497 32.6052L55.3947 32.7503C55.7279 33.0833 56.2727 33.0832 56.6057 32.7501L56.7503 32.6055C57.0833 32.2724 57.0832 31.7273 56.7502 31.3942L56.6059 31.2499Z" fill="#404042"/>
<path fill-rule="evenodd" clip-rule="evenodd" d="M58.2921 34.292C57.9026 34.6813 57.9026 35.3187 58.2921 35.708C58.6816 36.0973 59.3186 36.0973 59.7081 35.708C60.0973 35.3187 60.0973 34.6813 59.7081 34.292C59.3186 33.9027 58.6816 33.9027 58.2921 34.292Z" fill="#404042"/>
<path fill-rule="evenodd" clip-rule="evenodd" d="M36.3948 20.7504C36.7279 21.0832 37.2727 21.0832 37.6057 20.7502L37.7503 20.6057C38.0832 20.2727 38.0832 19.7277 37.7504 19.3947L37.6056 19.2499C37.2727 18.9168 36.7279 18.9168 36.3949 19.2496L36.2497 19.3948C35.9167 19.7278 35.9167 20.2726 36.2498 20.6054L36.3948 20.7504Z" fill="#404042"/>
<path fill-rule="evenodd" clip-rule="evenodd" d="M40.3947 23.2497L40.2498 23.3946C39.9167 23.7277 39.9167 24.2724 40.2498 24.6055L40.3947 24.7503C40.7277 25.0833 41.2726 25.0832 41.6056 24.7503L41.7503 24.6055C42.0832 24.2725 42.0832 23.7275 41.7503 23.3946L41.6055 23.2498C41.2726 22.9168 40.7278 22.9168 40.3947 23.2497Z" fill="#EC2C7C"/>
<path fill-rule="evenodd" clip-rule="evenodd" d="M44.6051 27.2497C44.2719 26.9168 43.727 26.9168 43.394 27.2498L43.2498 27.394C42.9167 27.727 42.9167 28.2721 43.2498 28.6051L43.3948 28.7502C43.7278 29.0833 44.2727 29.0833 44.6058 28.7502L44.7502 28.6055C45.0833 28.2725 45.0833 27.7276 44.7501 27.3946L44.6051 27.2497Z" fill="#404042"/>
<path fill-rule="evenodd" clip-rule="evenodd" d="M48.6051 31.2496C48.2721 30.9167 47.7273 30.9168 47.3943 31.2497L47.2496 31.3945C46.9168 31.7274 46.9168 32.2724 47.2496 32.6055L47.3944 32.7501C47.7273 33.0832 48.2721 33.0833 48.6051 32.7504L48.7503 32.6052C49.0832 32.2723 49.0832 31.7276 48.7503 31.3947L48.6051 31.2496Z" fill="#404042"/>
<path fill-rule="evenodd" clip-rule="evenodd" d="M52.292 34.292C51.9027 34.6813 51.9027 35.3187 52.292 35.708C52.6813 36.0973 53.3185 36.0973 53.7078 35.708C54.0974 35.3187 54.0974 34.6813 53.7078 34.292C53.3185 33.9027 52.6813 33.9027 52.292 34.292Z" fill="#404042"/>
<path fill-rule="evenodd" clip-rule="evenodd" d="M55.2921 38.2921C54.9026 38.6816 54.9026 39.3189 55.2921 39.708C55.6816 40.0973 56.3188 40.0973 56.7081 39.708C57.0973 39.3189 57.0973 38.6816 56.7081 38.2921C56.3188 37.9026 55.6816 37.9026 55.2921 38.2921Z" fill="#404042"/>
<path fill-rule="evenodd" clip-rule="evenodd" d="M33.6053 23.2496C33.2724 22.9169 32.7278 22.9167 32.3949 23.2495L32.2497 23.3946C31.9168 23.7274 31.9168 24.272 32.2496 24.6048L32.3951 24.7505C32.7279 25.0832 33.2724 25.0832 33.6052 24.7503L33.7505 24.6049C34.0833 24.272 34.0831 23.7274 33.7502 23.3945L33.6053 23.2496Z" fill="#404042"/>
<path fill-rule="evenodd" clip-rule="evenodd" d="M37.6055 27.2497C37.2726 26.9168 36.7278 26.9168 36.3949 27.2497L36.2497 27.3948C35.9168 27.7276 35.9168 28.2724 36.2497 28.6053L36.3949 28.7503C36.7278 29.0832 37.2725 29.0832 37.6054 28.7502L37.7504 28.605C38.0832 28.2721 38.0832 27.7272 37.7503 27.3943L37.6055 27.2497Z" fill="#404042"/>
<path fill-rule="evenodd" clip-rule="evenodd" d="M41.6049 31.2496C41.2721 30.9167 40.7276 30.9168 40.3948 31.2497L40.2495 31.395C39.9167 31.7279 39.9169 32.2727 40.2497 32.6054L40.3947 32.7504C40.7275 33.0832 41.2721 33.0832 41.6051 32.7504L41.7502 32.6054C42.0831 32.2727 42.0833 31.728 41.7505 31.3952L41.6049 31.2496Z" fill="#404042"/>
<path fill-rule="evenodd" clip-rule="evenodd" d="M44.2921 34.292C43.9026 34.6813 43.9026 35.3187 44.2921 35.708C44.6816 36.0973 45.3188 36.0973 45.7081 35.708C46.0973 35.3187 46.0973 34.6813 45.7081 34.292C45.3188 33.9027 44.6816 33.9027 44.2921 34.292Z" fill="#404042"/>
<path fill-rule="evenodd" clip-rule="evenodd" d="M47.2921 38.2921C46.9028 38.6815 46.9026 39.3189 47.2917 39.7081C47.681 40.0973 48.3181 40.0973 48.7077 39.7081C49.0974 39.3189 49.0974 38.6815 48.7081 38.2921C48.3186 37.9026 47.6814 37.9026 47.2921 38.2921Z" fill="#404042"/>
<path fill-rule="evenodd" clip-rule="evenodd" d="M52.292 42.2918C51.9027 42.6808 51.9027 43.3181 52.292 43.7078C52.6814 44.0974 53.3188 44.0974 53.708 43.7078C54.0973 43.3181 54.0973 42.6808 53.708 42.2918C53.3188 41.9027 52.6814 41.9027 52.292 42.2918Z" fill="#404042"/>
<path fill-rule="evenodd" clip-rule="evenodd" d="M30.6051 27.2497C30.2722 26.9168 29.7274 26.9168 29.3946 27.2498L29.2497 27.3947C28.9168 27.7276 28.9168 28.2725 29.2497 28.6054L29.3946 28.7503C29.7274 29.0832 30.2722 29.0832 30.6051 28.7503L30.7503 28.6052C31.0832 28.2724 31.0832 27.7276 30.7503 27.3947L30.6051 27.2497Z" fill="#404042"/>
<path fill-rule="evenodd" clip-rule="evenodd" d="M33.6055 31.2497C33.2725 30.9168 32.7278 30.9167 32.3949 31.2496L32.2497 31.3948C31.9168 31.7276 31.9168 32.2724 32.2496 32.6053L32.3946 32.7502C32.7274 33.0832 33.2723 33.0832 33.6051 32.7504L33.7502 32.6051C34.0832 32.2724 34.0833 31.7276 33.7504 31.3947L33.6055 31.2497Z" fill="#404042"/>
<path fill-rule="evenodd" clip-rule="evenodd" d="M36.2921 34.292C35.9026 34.6813 35.9026 35.3187 36.2921 35.708C36.6815 36.0973 37.3187 36.0973 37.7079 35.708C38.0974 35.3187 38.0974 34.6813 37.7079 34.292C37.3187 33.9027 36.6815 33.9027 36.2921 34.292Z" fill="#404042"/>
<path fill-rule="evenodd" clip-rule="evenodd" d="M40.2919 38.2919C39.9027 38.6811 39.9027 39.3184 40.2919 39.7078C40.6811 40.0974 41.3184 40.0974 41.7078 39.7078C42.0974 39.3184 42.0974 38.6811 41.7078 38.2919C41.3184 37.9027 40.6811 37.9027 40.2919 38.2919Z" fill="#404042"/>
<path fill-rule="evenodd" clip-rule="evenodd" d="M44.2923 42.292C43.9029 42.6812 43.9024 43.3186 44.2917 43.708C44.681 44.0974 45.318 44.0974 45.7077 43.7076C46.0971 43.3179 46.0976 42.6808 45.7083 42.2916C45.319 41.9026 44.6818 41.9028 44.2923 42.292Z" fill="#404042"/>
<path fill-rule="evenodd" clip-rule="evenodd" d="M48.1462 47.1461C47.9513 47.341 47.9513 47.6596 48.1462 47.854C48.341 48.0487 48.6595 48.0487 48.8542 47.854C49.0486 47.6596 49.0486 47.341 48.8542 47.1461C48.6595 46.9513 48.341 46.9513 48.1462 47.1461Z" fill="#404042"/>
<path fill-rule="evenodd" clip-rule="evenodd" d="M25.6055 31.2497C25.2725 30.9168 24.7275 30.9168 24.3945 31.2497L24.2497 31.3944C23.9168 31.7274 23.9168 32.2722 24.2497 32.6053L24.3947 32.7503C24.7275 33.0832 25.2725 33.0832 25.6053 32.7503L25.7503 32.6053C26.0832 32.2722 26.0832 31.7274 25.7503 31.3944L25.6055 31.2497Z" fill="#404042"/>
<path fill-rule="evenodd" clip-rule="evenodd" d="M28.708 35.708C29.0973 35.3187 29.0973 34.6813 28.708 34.292C28.3186 33.9027 27.6812 33.9027 27.292 34.292C26.9027 34.6813 26.9027 35.3187 27.292 35.708C27.6812 36.0973 28.3186 36.0973 28.708 35.708Z" fill="#404042"/>
<path fill-rule="evenodd" clip-rule="evenodd" d="M32.2919 38.2921C31.9026 38.6815 31.9026 39.3189 32.2923 39.7081C32.6817 40.0973 33.3187 40.0973 33.7081 39.7081C34.0974 39.3189 34.0974 38.6815 33.7077 38.2921C33.3183 37.9026 32.6811 37.9026 32.2919 38.2921Z" fill="#404042"/>
<path fill-rule="evenodd" clip-rule="evenodd" d="M36.292 42.2917C35.9027 42.6807 35.9027 43.318 36.292 43.7076C36.6813 44.0973 37.3185 44.0975 37.708 43.7081C38.0973 43.3185 38.0973 42.6813 37.708 42.2921C37.3185 41.9027 36.6813 41.9027 36.292 42.2917Z" fill="#404042"/>
<path fill-rule="evenodd" clip-rule="evenodd" d="M41.146 47.1459C40.9513 47.3405 40.9513 47.6591 41.146 47.8539C41.3406 48.0487 41.6592 48.0487 41.854 47.8539C42.0487 47.6591 42.0487 47.3405 41.854 47.1459C41.6592 46.9514 41.3406 46.9514 41.146 47.1459Z" fill="#404042"/>
<path fill-rule="evenodd" clip-rule="evenodd" d="M44.1457 50.1459C43.9511 50.3405 43.9516 50.6591 44.1463 50.8539C44.3413 51.0487 44.6597 51.0487 44.8543 50.8539C45.0488 50.6591 45.0486 50.3405 44.8536 50.1459C44.6588 49.9514 44.3402 49.9514 44.1457 50.1459Z" fill="#404042"/>
<path fill-rule="evenodd" clip-rule="evenodd" d="M21.2921 34.292C20.9026 34.6813 20.9026 35.3187 21.2921 35.708C21.6816 36.0973 22.3186 36.0973 22.7081 35.708C23.0973 35.3187 23.0973 34.6813 22.7081 34.292C22.3186 33.9027 21.6816 33.9027 21.2921 34.292Z" fill="#404042"/>
<path fill-rule="evenodd" clip-rule="evenodd" d="M24.2921 38.2921C23.9026 38.6816 23.9026 39.3189 24.2921 39.708C24.6816 40.0973 25.3186 40.0973 25.7081 39.708C26.0973 39.3189 26.0973 38.6816 25.7081 38.2921C25.3186 37.9026 24.6816 37.9026 24.2921 38.2921Z" fill="#404042"/>
<path fill-rule="evenodd" clip-rule="evenodd" d="M27.292 42.2918C26.9027 42.6808 26.9027 43.3181 27.292 43.7078C27.6812 44.0974 28.3184 44.0974 28.7079 43.7078C29.0974 43.3181 29.0974 42.6808 28.7079 42.2918C28.3184 41.9027 27.6812 41.9027 27.292 42.2918Z" fill="#404042"/>
<path fill-rule="evenodd" clip-rule="evenodd" d="M32.1462 47.146C31.9513 47.3408 31.9513 47.6592 32.1462 47.854C32.341 48.0487 32.6595 48.0487 32.8542 47.854C33.0486 47.6592 33.0486 47.3408 32.8542 47.146C32.6595 46.9513 32.341 46.9513 32.1462 47.146Z" fill="#404042"/>
<path fill-rule="evenodd" clip-rule="evenodd" d="M36.146 50.1459C35.9513 50.3405 35.9513 50.6591 36.146 50.8539C36.3407 51.0487 36.6593 51.0487 36.854 50.8539C37.0487 50.6591 37.0487 50.3405 36.854 50.1459C36.6593 49.9514 36.3407 49.9514 36.146 50.1459Z" fill="#404042"/>
<path fill-rule="evenodd" clip-rule="evenodd" d="M41.146 55.1461C40.9513 55.3409 40.9513 55.6595 41.146 55.8541C41.3406 56.0486 41.6592 56.0486 41.854 55.8541C42.0487 55.6595 42.0487 55.3409 41.854 55.1461C41.6592 54.9513 41.3406 54.9513 41.146 55.1461Z" fill="#404042"/>
<mask id="mask0_619_4746" style="mask-type:luminance" maskUnits="userSpaceOnUse" x="40" y="0" width="2" height="2">
<path fill-rule="evenodd" clip-rule="evenodd" d="M40 0H42V2H40V0Z" fill="white"/>
</mask>
<g mask="url(#mask0_619_4746)">
<path fill-rule="evenodd" clip-rule="evenodd" d="M40.3946 1.75036C40.7277 2.08327 41.2727 2.08327 41.6056 1.75023L41.7502 1.60582C42.0832 1.27278 42.0832 0.727908 41.7504 0.394865L41.6055 0.249782C41.2726 -0.0832607 40.7278 -0.0832607 40.3949 0.249782L40.2497 0.395C39.9168 0.727908 39.9168 1.27278 40.2498 1.60568L40.3946 1.75036Z" fill="#404042"/>
</g>
<path fill-rule="evenodd" clip-rule="evenodd" d="M44.6056 4.24982C44.2726 3.91682 43.7278 3.91668 43.3948 4.24968L43.2498 4.39475C42.9168 4.72774 42.9168 5.27268 43.2496 5.60568L43.3941 5.75007C43.727 6.0832 44.2719 6.08333 44.6051 5.75033L44.7501 5.60541C45.0832 5.27254 45.0833 4.72761 44.7503 4.39461L44.6056 4.24982Z" fill="#404042"/>
<path fill-rule="evenodd" clip-rule="evenodd" d="M48.605 8.24951C48.2721 7.91674 47.7273 7.91688 47.3944 8.24964L47.2497 8.39439C46.9169 8.72716 46.9167 9.27207 47.2494 9.60497L47.3946 9.75026C47.7273 10.0832 48.2719 10.0833 48.6048 9.75039L48.7503 9.60483C49.0833 9.27193 49.0832 8.72729 48.7502 8.39453L48.605 8.24951Z" fill="#404042"/>
<path fill-rule="evenodd" clip-rule="evenodd" d="M52.6054 12.2497C52.2725 11.9168 51.7278 11.9167 51.3949 12.2496L51.2497 12.3948C50.9168 12.7277 50.9168 13.2724 51.2497 13.6053L51.3949 13.7504C51.7278 14.0832 52.2726 14.0832 52.6054 13.7502L52.7503 13.6054C53.0832 13.2724 53.0832 12.7277 52.7503 12.3947L52.6054 12.2497Z" fill="#404042"/>
<path fill-rule="evenodd" clip-rule="evenodd" d="M55.3948 16.7503C55.7279 17.0833 56.2728 17.0833 56.6057 16.7501L56.7503 16.6056C57.0833 16.2724 57.0832 15.7273 56.7502 15.3942L56.6059 15.2499C56.2729 14.9167 55.7278 14.9167 55.3946 15.2497L55.2499 15.3944C54.9168 15.7274 54.9167 16.2723 55.2498 16.6053L55.3948 16.7503Z" fill="#404042"/>
<path fill-rule="evenodd" clip-rule="evenodd" d="M59.7079 21.708C60.0974 21.3187 60.0974 20.6813 59.7079 20.292C59.3184 19.9027 58.6814 19.9027 58.2919 20.292C57.9027 20.6813 57.9027 21.3187 58.2919 21.708C58.6814 22.0973 59.3184 22.0973 59.7079 21.708Z" fill="#404042"/>
<path fill-rule="evenodd" clip-rule="evenodd" d="M36.3948 5.75038C36.7279 6.08323 37.2727 6.08323 37.6057 5.75024L37.7503 5.60559C38.0832 5.27261 38.0832 4.7277 37.7503 4.39458L37.6056 4.24992C37.2727 3.9168 36.7279 3.91667 36.3949 4.24965L36.2497 4.39485C35.9167 4.7277 35.9167 5.27247 36.2498 5.60546L36.3948 5.75038Z" fill="#404042"/>
<path fill-rule="evenodd" clip-rule="evenodd" d="M40.3947 9.75033C40.7278 10.0832 41.2726 10.0832 41.6055 9.7502L41.7503 9.60538C42.0832 9.27247 42.0832 8.72746 41.7503 8.39455L41.6056 8.24973C41.2726 7.91682 40.7277 7.91669 40.3947 8.24973L40.2498 8.39455C39.9167 8.7276 39.9167 9.27234 40.2498 9.60538L40.3947 9.75033Z" fill="#404042"/>
<path fill-rule="evenodd" clip-rule="evenodd" d="M43.3948 13.7502C43.7278 14.0833 44.2727 14.0833 44.6058 13.7502L44.7502 13.6057C45.0833 13.2726 45.0833 12.7277 44.7501 12.3946L44.6051 12.2497C44.2719 11.9168 43.727 11.9168 43.394 12.2498L43.2498 12.394C42.9167 12.727 42.9167 13.2721 43.2498 13.6051L43.3948 13.7502Z" fill="#404042"/>
<path fill-rule="evenodd" clip-rule="evenodd" d="M47.3944 16.7502C47.7273 17.0832 48.2721 17.0832 48.6052 16.7503L48.7503 16.6052C49.0832 16.2723 49.0832 15.7276 48.7503 15.3947L48.6051 15.2496C48.2721 14.9167 47.7273 14.9168 47.3944 15.2499L47.2497 15.3945C46.9168 15.7276 46.9168 16.2725 47.2497 16.6055L47.3944 16.7502Z" fill="#404042"/>
<path fill-rule="evenodd" clip-rule="evenodd" d="M53.7078 21.708C54.0974 21.3187 54.0974 20.6813 53.7078 20.292C53.3183 19.9027 52.6811 19.9027 52.292 20.292C51.9027 20.6813 51.9027 21.3187 52.292 21.708C52.6811 22.0973 53.3183 22.0973 53.7078 21.708Z" fill="#404042"/>
<path fill-rule="evenodd" clip-rule="evenodd" d="M55.2921 23.2922C54.9026 23.6817 54.9026 24.3191 55.2921 24.7082C55.6816 25.0973 56.3188 25.0973 56.7081 24.7082C57.0973 24.3191 57.0973 23.6817 56.7081 23.2922C56.3188 22.9026 55.6816 22.9026 55.2921 23.2922Z" fill="#404042"/>
<path fill-rule="evenodd" clip-rule="evenodd" d="M33.6054 8.24963C33.2725 7.91688 32.7278 7.91674 32.3949 8.2495L32.2498 8.39465C31.9169 8.72727 31.9167 9.27189 32.2495 9.60478L32.3952 9.75033C32.728 10.0832 33.2725 10.0832 33.6051 9.75033L33.7506 9.60491C34.0832 9.27202 34.0832 8.72727 33.7503 8.39451L33.6054 8.24963Z" fill="#404042"/>
<path fill-rule="evenodd" clip-rule="evenodd" d="M37.6055 12.2497C37.2726 11.9168 36.7278 11.9168 36.3949 12.2497L36.2497 12.3949C35.9168 12.7278 35.9168 13.2725 36.2497 13.6053L36.3949 13.7504C36.7278 14.0833 37.2725 14.0832 37.6053 13.7501L37.7504 13.6049C38.0832 13.2721 38.0832 12.7272 37.7503 12.3943L37.6055 12.2497Z" fill="#404042"/>
<path fill-rule="evenodd" clip-rule="evenodd" d="M30.6051 12.2496C30.2722 11.9168 29.7275 11.9168 29.3946 12.2498L29.2497 12.3947C28.9168 12.7276 28.9168 13.2724 29.2497 13.6053L29.3946 13.7503C29.7275 14.0832 30.2722 14.0833 30.6051 13.7504L30.7503 13.6053C31.0832 13.2724 31.0832 12.7277 30.7503 12.3949L30.6051 12.2496Z" fill="#404042"/>
<path fill-rule="evenodd" clip-rule="evenodd" d="M33.6051 16.7503L33.7503 16.6053C34.0832 16.2724 34.0832 15.7276 33.7503 15.3946L33.6054 15.2498C33.2726 14.9168 32.7278 14.9168 32.3949 15.2497L32.2497 15.3947C31.9168 15.7276 31.9168 16.2724 32.2497 16.6053L32.3946 16.7502C32.7274 17.0832 33.2722 17.0832 33.6051 16.7503Z" fill="#404042"/>
<path fill-rule="evenodd" clip-rule="evenodd" d="M24.3946 16.7503C24.7276 17.0832 25.2724 17.0832 25.6054 16.7503L25.7504 16.6053C26.0832 16.2723 26.0832 15.7274 25.7502 15.3945L25.6054 15.2497C25.2724 14.9168 24.7275 14.9168 24.3945 15.2497L24.2498 15.3945C23.9168 15.7274 23.9167 16.2723 24.2497 16.6053L24.3946 16.7503Z" fill="#404042"/>
<path fill-rule="evenodd" clip-rule="evenodd" d="M28.708 21.708C29.0973 21.3187 29.0973 20.6813 28.708 20.292C28.3186 19.9027 27.6812 19.9027 27.292 20.292C26.9027 20.6813 26.9027 21.3187 27.292 21.708C27.6812 22.0973 28.3186 22.0973 28.708 21.708Z" fill="#404042"/>
<path fill-rule="evenodd" clip-rule="evenodd" d="M21.2921 20.292C20.9026 20.6813 20.9026 21.3187 21.2921 21.708C21.6816 22.0973 22.3186 22.0973 22.7081 21.708C23.0973 21.3187 23.0973 20.6813 22.7081 20.292C22.3186 19.9027 21.6816 19.9027 21.2921 20.292Z" fill="#404042"/>
<path fill-rule="evenodd" clip-rule="evenodd" d="M24.2921 23.2922C23.9026 23.6817 23.9026 24.3191 24.2921 24.7082C24.6816 25.0973 25.3186 25.0973 25.7081 24.7082C26.0973 24.3191 26.0973 23.6817 25.7081 23.2922C25.3186 22.9026 24.6816 22.9026 24.2921 23.2922Z" fill="#404042"/>
<path fill-rule="evenodd" clip-rule="evenodd" d="M10.4554 79H10.4536C10.201 78.997 9.99725 78.7589 10 78.4696L10.0842 67.5215C10.0866 67.2322 10.2931 66.9997 10.5442 67H10.546C10.7989 67.0032 11.0017 67.2402 11 67.5304L10.9156 78.4788C10.9126 78.7687 10.7069 79.0013 10.4554 79Z" fill="#404042"/>
<path fill-rule="evenodd" clip-rule="evenodd" d="M16.4314 80C16.2233 79.9988 16.0233 79.8921 15.9263 79.7097L10.0584 68.7507C9.92048 68.4923 10.035 68.181 10.3158 68.0541C10.5972 67.9259 10.9371 68.0337 11.0755 68.2912L16.9421 79.2504C17.0795 79.5086 16.964 79.8196 16.6831 79.947C16.6012 79.9839 16.5157 80 16.4314 80Z" fill="#404042"/>
<path fill-rule="evenodd" clip-rule="evenodd" d="M22.4931 79C22.219 78.9997 22 78.7646 22 78.4753L22.0092 67.5259C22.0092 67.2364 22.2317 67.0015 22.5053 67H22.5078C22.7795 67.0015 23 67.2372 23 67.5271L22.9907 78.4758C22.9907 78.7657 22.7674 79.0015 22.495 79H22.4931Z" fill="#404042"/>
<path fill-rule="evenodd" clip-rule="evenodd" d="M25.4958 80C25.4345 79.9986 25.3742 79.9865 25.3154 79.9625C25.0588 79.8544 24.9337 79.5442 25.0353 79.2701L29.0404 68.3395C29.1395 68.063 29.4298 67.9297 29.6844 68.0371C29.9395 68.1444 30.0655 68.4553 29.9659 68.7302L25.9613 79.6606C25.8839 79.8729 25.6935 80.001 25.4958 80Z" fill="#404042"/>
<path fill-rule="evenodd" clip-rule="evenodd" d="M34.4885 80C34.2868 79.9995 34.0945 79.8696 34.0179 79.6577L30.0335 68.7235C29.9334 68.4475 30.065 68.1398 30.3268 68.0354C30.588 67.9301 30.8828 68.0675 30.9829 68.343L34.966 79.2783C35.0671 79.5531 34.9349 79.8595 34.6731 79.9653C34.6131 79.9893 34.5511 80 34.4885 80Z" fill="#404042"/>
<path fill-rule="evenodd" clip-rule="evenodd" d="M38.4927 80C38.2188 79.9993 38 79.7643 38 79.4749L38.0106 68.5257C38.0106 68.2364 38.2315 68.0012 38.5048 68H38.5069C38.7782 68.0012 39 68.2364 39 68.5257L38.9893 79.4749C38.9893 79.7643 38.7685 80 38.495 80H38.4927Z" fill="#404042"/>
<path fill-rule="evenodd" clip-rule="evenodd" d="M1.4917 79C1.21999 78.9981 1 78.7604 1 78.4675L1.00965 70.5303C1.00965 70.2377 1.23217 70 1.50577 70H1.50783C1.77953 70.0014 2.00095 70.2381 2 70.5315L1.99019 78.4683C1.9913 78.7619 1.7683 79 1.49359 79H1.4917Z" fill="#404042"/>
<path fill-rule="evenodd" clip-rule="evenodd" d="M3 73.5097C3.0023 73.2417 3.21731 73.0248 3.48097 73.0248L6.52149 73C6.78514 72.9989 6.99954 73.2174 7 73.4874V73.4893C6.99954 73.7572 6.78514 73.9745 6.51903 73.9745L3.48097 74C3.21486 74 3 73.7811 3 73.5112V73.5097Z" fill="#404042"/>
<path fill-rule="evenodd" clip-rule="evenodd" d="M29.9962 77C29.4447 76.9981 28.9977 76.5475 29 75.9962C29.0031 75.4425 29.4495 74.9979 30.0021 75H30.0061C30.557 75.0031 31.0029 75.4525 31 76.0054C30.9969 76.5575 30.5482 77.0029 29.9962 77Z" fill="#EC2C7C"/>
<mask id="mask1_619_4746" style="mask-type:luminance" maskUnits="userSpaceOnUse" x="0" y="67" width="2" height="2">
<path fill-rule="evenodd" clip-rule="evenodd" d="M0 67H2V69H0V67Z" fill="white"/>
</mask>
<g mask="url(#mask1_619_4746)">
<path fill-rule="evenodd" clip-rule="evenodd" d="M0.996769 69C0.445266 68.9983 -0.00171789 68.5475 4.96372e-06 67.9962C0.00364209 67.4425 0.450052 66.9979 1.0027 67H1.00672C1.55765 67.0031 2.00349 67.4525 2.00004 68.0054C1.99755 68.5575 1.54827 69.0029 0.996769 69Z" fill="#EC2C7C"/>
</g>
<path fill-rule="evenodd" clip-rule="evenodd" d="M40.4717 75C40.3643 75 40.2557 74.9541 40.1665 74.8631C39.9678 74.6542 39.9429 74.2871 40.1136 74.0424L44.1639 68.2049C44.3335 67.9609 44.6342 67.9299 44.8318 68.1384C45.0334 68.3468 45.0563 68.715 44.887 68.9594L40.8359 74.7957C40.741 74.9328 40.6074 75.0004 40.4717 75Z" fill="#404042"/>
<path fill-rule="evenodd" clip-rule="evenodd" d="M44.532 80C44.397 80 44.2638 79.9205 44.172 79.7696L40.1039 73.0193C39.9417 72.7502 39.973 72.3567 40.1728 72.1388C40.3736 71.9225 40.6671 71.963 40.8297 72.2327L44.8968 78.9814C45.0576 79.2503 45.0277 79.644 44.8269 79.8617C44.7405 79.9552 44.6358 80.0016 44.532 80Z" fill="#404042"/>
<path fill-rule="evenodd" clip-rule="evenodd" d="M48.4924 80C48.2189 79.9985 48 79.7637 48 79.4743L48.0087 68.5247C48.0101 68.2353 48.2316 68.0005 48.5051 68H48.5065C48.7785 68.0005 49 68.2353 49 68.5247L48.9893 79.4743C48.9893 79.7637 48.7679 80 48.4948 80H48.4924Z" fill="#404042"/>
<path fill-rule="evenodd" clip-rule="evenodd" d="M48.6007 68C48.2695 67.9989 48.0017 67.7805 48 67.5115C47.9992 67.2393 48.2683 67.0191 48.6019 67.0176L54.3956 67H54.401C54.7317 67.0008 55 67.2183 55 67.488C55.0023 67.7594 54.7334 67.9801 54.401 67.982L48.6055 68H48.6007Z" fill="#404042"/>
<path fill-rule="evenodd" clip-rule="evenodd" d="M48.5789 80C48.2596 79.9986 48 79.7803 48 79.5102C47.9993 79.2384 48.2591 79.018 48.5789 79.0171L54.4176 79H54.4217C54.7415 79.0011 55 79.2192 55 79.4893C55.0028 79.7619 54.7426 79.9823 54.4204 79.9823L48.5846 80H48.5789Z" fill="#404042"/>
<mask id="mask2_619_4746" style="mask-type:luminance" maskUnits="userSpaceOnUse" x="70" y="68" width="1" height="12">
<path fill-rule="evenodd" clip-rule="evenodd" d="M70 68H71V80H70V68Z" fill="white"/>
</mask>
<g mask="url(#mask2_619_4746)">
<path fill-rule="evenodd" clip-rule="evenodd" d="M70.4931 80C70.2184 79.9985 70 79.7638 70 79.4743L70.0092 68.5249C70.0092 68.2357 70.2312 68.0008 70.5034 68H70.5048C70.7789 68.0017 71 68.237 71 68.5264L70.9902 79.4754C70.9902 79.765 70.7672 80.0005 70.4941 80H70.4931Z" fill="#404042"/>
</g>
<path fill-rule="evenodd" clip-rule="evenodd" d="M15.6331 80C15.5377 80 15.4405 79.9821 15.3507 79.944C15.0358 79.8148 14.9096 79.4994 15.0689 79.2425L21.7953 68.2875C21.9521 68.0301 22.3357 67.9257 22.6488 68.0565C22.9652 68.1856 23.0899 68.5011 22.9312 68.7578L16.2061 79.7125C16.0932 79.8961 15.8679 80.001 15.6331 80Z" fill="#404042"/>
<path fill-rule="evenodd" clip-rule="evenodd" d="M51.9979 74H51.9931C51.4416 73.9971 50.9971 73.5474 51 72.9949C51.0031 72.4424 51.4518 71.9975 52.0033 72C52.5553 72.0027 53.0029 72.4526 53 73.0051C52.9969 73.5566 52.5494 74.0021 51.9979 74Z" fill="#EC2C7C"/>
<path fill-rule="evenodd" clip-rule="evenodd" d="M61.46 79.9999C59.0624 79.9879 57.2307 78.4652 57.009 76.2959C57.0069 76.2792 57.0048 76.2617 57.0048 76.2436L57 68.5373C57 68.2415 57.2478 68 57.5559 68H57.5592C57.8646 68.0023 58.1109 68.2415 58.1109 68.5373L58.1152 76.2157C58.2952 77.8286 59.638 78.9165 61.4654 78.9252C63.1743 78.9324 64.5399 78.0213 64.8843 76.6504L64.8907 68.5751C64.8907 68.2774 65.139 68.0378 65.4451 68.0378H65.4477C65.7532 68.0398 65.9995 68.2786 66 68.5751L65.9946 76.7126C65.9946 76.7511 65.9903 76.7906 65.9824 76.8288C65.5426 78.7365 63.7271 80.0103 61.46 79.9999Z" fill="#404042"/>
<path fill-rule="evenodd" clip-rule="evenodd" d="M75.019 69.0895C72.8633 69.0786 71.101 70.8254 71.0891 72.9815C71.0796 75.1369 72.824 76.899 74.9809 76.91C77.1371 76.9203 78.8994 75.1754 78.9102 73.0196C78.9214 70.8636 77.1759 69.0998 75.019 69.0895ZM74.9765 77.9998C72.2191 77.9864 69.9861 75.7318 70.0001 72.9761C70.0135 70.2185 72.2685 67.9867 75.026 68.0001C77.7818 68.0129 80.0132 70.2676 79.9998 73.0248C79.9869 75.7812 77.7329 78.0131 74.9765 77.9998Z" fill="#404042"/>
</svg>
