<svg xmlns="http://www.w3.org/2000/svg" width="20" height="20" viewBox="0 0 20 20" fill="none">
  <mask id="mask0_625_83604" style="mask-type:luminance" maskUnits="userSpaceOnUse" x="0" y="0" width="20" height="20">
    <path fill-rule="evenodd" clip-rule="evenodd" d="M0 0H20V20H0V0Z" fill="white"/>
  </mask>
  <g mask="url(#mask0_625_83604)">
    <path fill-rule="evenodd" clip-rule="evenodd" d="M1.73906 6.24321H8.73277V1.25312C8.67072 1.25312 8.62422 1.25312 8.57766 1.25312C7.43953 1.25312 6.3014 1.256 5.16327 1.25116C4.86098 1.24991 4.65381 1.37618 4.50098 1.6349C4.03976 2.41589 3.56877 3.19107 3.10212 3.96891C2.65302 4.71736 2.20468 5.46624 1.73906 6.24321ZM10.0181 1.25307V6.24625H17.0019C16.9782 6.19578 16.9649 6.1596 16.9454 6.12711C16.0366 4.61109 15.1275 3.09523 14.2178 1.57975C14.0843 1.35743 13.886 1.25154 13.6263 1.25263C13.1451 1.2547 12.6638 1.25312 12.1826 1.25312C11.4649 1.25307 10.7473 1.25307 10.0181 1.25307ZM18.7472 14.3673C18.7447 11.9605 16.7799 10.0005 14.371 10.002C11.9643 10.0034 10.0019 11.9673 10.0015 14.3747C10.001 16.7914 11.9691 18.7539 14.3885 18.7495C16.7941 18.745 18.7497 16.7789 18.7472 14.3673ZM17.4859 7.51866H1.25481C1.25481 7.60173 1.25481 7.66856 1.25481 7.73538C1.25481 10.7388 1.2547 13.7423 1.25491 16.7457C1.25491 17.2711 1.48207 17.4979 2.0106 17.498C4.49152 17.4984 6.97244 17.4982 9.45336 17.4977C9.52351 17.4977 9.59359 17.491 9.67433 17.4869C8.09215 14.9996 8.69349 12.1648 10.2243 10.6026C12.373 8.40978 14.8321 8.22886 17.4859 9.64138V7.51866ZM0.00100728 11.9167C0.00100728 10.2825 -0.00382819 8.64834 0.00769 7.01426C0.00899395 6.82818 0.0641943 6.62015 0.158839 6.46053C1.24367 4.63108 2.34202 2.80973 3.43446 0.984784C3.83162 0.321362 4.41519 -0.000162319 5.18517 0.000163661C7.97833 0.00146758 10.7715 0.00179356 13.5647 6.70954e-07C14.3437 -0.000542628 14.9284 0.32886 15.3287 0.998747C16.413 2.81288 17.5047 4.6226 18.582 6.44092C18.6798 6.60592 18.7384 6.81971 18.7407 7.01165C18.7547 8.23201 18.7452 9.45264 18.7525 10.6732C18.753 10.7776 18.7953 10.8998 18.8585 10.9834C21.4339 14.3911 19.4134 19.3203 15.1811 19.9371C13.644 20.1611 12.2542 19.7822 10.9994 18.8744C10.9041 18.8054 10.7696 18.756 10.6532 18.7558C7.75155 18.7492 4.84995 18.7521 1.94834 18.7498C1.00608 18.749 0.265654 18.1827 0.0588155 17.3021C0.0159483 17.1196 0.00388682 16.9263 0.00339784 16.7378C-0.000785648 15.1308 0.00100728 13.5237 0.00100728 11.9167Z" fill="black"/>
  </g>
  <path fill-rule="evenodd" clip-rule="evenodd" d="M4.99189 10.9987C4.56531 10.9986 4.13868 11.0024 3.7121 10.9975C3.29614 10.9928 3.00369 10.5824 3.00004 10.009C2.99626 9.42347 3.29284 9.00442 3.72144 9.00267C4.57465 8.99917 5.42786 8.99908 6.28108 9.00258C6.71404 9.00442 7.00219 9.41228 6.99999 10.0068C6.99778 10.5983 6.70858 10.9947 6.27167 10.9981C5.8451 11.0014 5.41846 10.9988 4.99189 10.9987Z" fill="#43A046"/>
  <path fill-rule="evenodd" clip-rule="evenodd" d="M15.9089 12.2938C16.0221 12.1616 16.185 12.0549 16.3393 12.0151C16.5826 11.9522 16.787 12.0899 16.9131 12.3482C17.0381 12.6042 17.0265 12.8675 16.8897 13.116C16.8511 13.1862 16.7976 13.2459 16.7471 13.306C15.7998 14.4349 14.8523 15.5635 13.9041 16.6913C13.5581 17.1028 13.2379 17.1026 12.8929 16.6922C12.3267 16.0189 11.7611 15.345 11.1955 14.6708C11.0135 14.454 10.9547 14.197 11.0355 13.9048C11.1093 13.6376 11.2739 13.4845 11.5025 13.4362C11.7264 13.389 11.9078 13.4942 12.0639 13.6809C12.4539 14.1476 12.8469 14.611 13.2356 15.0793C13.2851 15.139 13.3164 15.2201 13.3671 15.3107C14.249 14.2604 15.0732 13.2701 15.9089 12.2938Z" fill="#43A046"/>
</svg>