<svg width="24" height="24" viewBox="0 0 24 24" fill="none" xmlns="http://www.w3.org/2000/svg">
<g id="Group 3" opacity="0.540132">
<mask id="mask0_619_2716" style="mask-type:luminance" maskUnits="userSpaceOnUse" x="0" y="0" width="24" height="24">
<path id="Clip 2" fill-rule="evenodd" clip-rule="evenodd" d="M24 0L24 24L0 24L0 0L24 0Z" fill="white"/>
</mask>
<g mask="url(#mask0_619_2716)">
<path id="Fill 1" fill-rule="evenodd" clip-rule="evenodd" d="M21.5703 11.444C21.5902 6.52125 17.5729 2.47381 12.6359 2.44262C7.6622 2.41128 3.62417 6.42574 3.60449 11.4215C3.58511 16.3423 7.59156 20.379 12.5156 20.3998C17.5158 20.4209 21.55 16.4308 21.5703 11.444ZM5.45009 20.2889C4.33198 21.3963 3.2364 22.4959 2.11972 23.5735C1.92838 23.7581 1.66109 23.9105 1.40382 23.9706C0.878819 24.0934 0.381502 23.8207 0.138157 23.3556C-0.0972576 22.9055 -0.0314083 22.3578 0.332563 21.978C0.765976 21.5256 1.21825 21.0914 1.66026 20.6472C2.34578 19.9582 3.0295 19.2674 3.72219 18.569C1.54922 15.7392 0.736343 12.5655 1.45673 9.05549C2.03853 6.22041 3.53303 3.9298 5.86449 2.21562C10.5633 -1.23906 17.0645 -0.58805 21.0198 3.70963C24.9142 7.94111 24.9963 14.4965 21.24 18.852C17.389 23.3172 10.4405 24.2662 5.45009 20.2889Z" fill="black"/>
</g>
</g>
</svg>
