<svg xmlns="http://www.w3.org/2000/svg" width="16" height="16" viewBox="0 0 16 16" fill="none">
  <path fill-rule="evenodd" clip-rule="evenodd" d="M12.8999 15.9999H14.3567C15.3775 15.9999 16.1806 15.0855 15.9646 14.1087C15.3703 11.4215 13.5135 9.43834 11.0687 8.53834C12.3647 7.51675 13.1199 5.86475 12.8431 4.05596C12.5199 1.95757 10.7383 0.27838 8.58719 0.0335814C5.61844 -0.304817 3.10009 1.95917 3.10009 4.79996C3.10009 6.31195 3.81608 7.65914 4.93126 8.53834C2.4865 9.43834 0.62974 11.4215 0.0353511 14.1087C-0.180645 15.0855 0.62254 15.9999 1.64332 15.9999H3.10089C3.55128 15.9999 3.91688 15.6415 3.91688 15.1999C3.91688 14.7583 3.55128 14.3999 3.10009 14.3999H2.7497C2.18491 14.3999 1.76732 13.8423 1.98171 13.3295C2.9705 10.9583 5.29285 9.59994 8 9.59994C10.7063 9.59994 13.0295 10.9583 14.0183 13.3295C14.2327 13.8423 13.8151 14.3999 13.2503 14.3999H12.8991C12.4487 14.3999 12.0831 14.7583 12.0831 15.1999C12.0852 15.4143 12.1725 15.6191 12.3257 15.7692C12.4789 15.9193 12.6855 16.0023 12.8999 15.9999ZM8.00071 1.59998C9.80228 1.59998 11.2671 3.03517 11.2671 4.79996C11.2671 6.56475 9.80228 7.99995 8.00071 7.99995C6.19915 7.99995 4.73438 6.56475 4.73438 4.79996C4.73438 3.03517 6.19915 1.59998 8.00071 1.59998Z" fill="#404042"/>
  <rect x="6" y="14" width="5" height="2" rx="1" fill="#43A046"/>
</svg>