<svg width="24" height="24" viewBox="0 0 24 24" fill="none" xmlns="http://www.w3.org/2000/svg">
<g id="Group 6">
<g id="Group 3">
<mask id="mask0_625_77549" style="mask-type:luminance" maskUnits="userSpaceOnUse" x="0" y="0" width="24" height="24">
<path id="Clip 2" fill-rule="evenodd" clip-rule="evenodd" d="M0 0H24V24H0V0Z" fill="white"/>
</mask>
<g mask="url(#mask0_625_77549)">
<path id="Fill 1" fill-rule="evenodd" clip-rule="evenodd" d="M1.99152 11.9092C1.9934 11.9093 1.99529 11.9093 1.99718 11.9094C1.91042 14.1564 1.82743 16.4036 1.73589 18.6504C1.65428 20.6556 3.21019 22.2779 5.24422 22.28C9.79634 22.2848 14.3485 22.2828 18.9005 22.278C19.1515 22.2777 19.4086 22.2516 19.6524 22.1941C21.2384 21.8201 22.3727 20.2925 22.3187 18.5993C22.2701 17.0742 22.2051 15.5497 22.1482 14.0248C22.0355 11.0108 21.9363 7.9962 21.7974 4.98343C21.7758 4.51543 21.6477 4.02038 21.4414 3.59843C20.8135 2.3138 19.7076 1.7268 18.2862 1.71945C15.9061 1.7071 13.5259 1.71595 11.1458 1.71603C9.31772 1.7161 7.48963 1.70632 5.66162 1.71952C3.883 1.73237 2.34689 3.1425 2.26913 4.84737C2.16184 7.20062 2.0827 9.55516 1.99152 11.9092ZM23.7227 11.9921C23.806 14.1319 23.8352 16.2754 23.9861 18.4105C24.1845 21.2154 22.223 23.2095 20.4602 23.7355C19.9734 23.8808 19.4517 23.9821 18.9455 23.9842C14.3577 24.0029 9.76979 24.0045 5.18198 23.9917C2.3347 23.9838 0.0192941 21.7115 0.000506212 18.901C-0.00696543 17.7778 0.0700723 16.654 0.112798 15.5307C0.194551 13.3819 0.279568 11.2333 0.362699 9.08452C0.418918 7.63121 0.461282 6.17726 0.533096 4.72473C0.647565 2.40731 2.63995 0.326102 4.98264 0.056698C5.21586 0.0299289 5.45103 0.00508714 5.68534 0.00494437C9.88411 0.00180346 14.0829 -0.00462112 18.2817 0.00537268C20.6841 0.0110834 22.7386 1.60045 23.2988 3.90188C23.4324 4.45076 23.4503 5.03125 23.4809 5.59933C23.5384 6.66838 23.5666 7.73893 23.6065 8.80891C23.6461 9.86996 23.685 10.931 23.7242 11.9921C23.7237 11.9921 23.7232 11.9921 23.7227 11.9921Z" fill="white"/>
</g>
</g>
<path id="Fill 4" fill-rule="evenodd" clip-rule="evenodd" d="M11.9914 10.1051C8.60386 10.0876 5.86337 7.42736 5.83794 4.11932C5.83331 3.51667 6.15132 3.16349 6.70386 3.15779C7.26154 3.15194 7.58595 3.49139 7.5983 4.09362C7.64438 6.33953 9.25826 8.09341 11.5701 8.33336C13.7574 8.56039 15.7281 7.20878 16.2575 5.11754C16.3453 4.77086 16.3759 4.40635 16.3968 4.04798C16.4293 3.49139 16.7487 3.15591 17.286 3.15779C17.8217 3.15959 18.1582 3.50468 18.1621 4.05636C18.1834 7.1009 15.8041 9.72447 12.7302 10.0442C12.4845 10.0698 12.2377 10.085 11.9914 10.1051Z" fill="white"/>
</g>
</svg>
