<svg width="20" height="22" viewBox="0 0 20 22" fill="none" xmlns="http://www.w3.org/2000/svg">
<g id="Group 11">
<g id="Group 3">
<mask id="mask0_625_108039" style="mask-type:luminance" maskUnits="userSpaceOnUse" x="0" y="3" width="20" height="19">
<path id="Clip 2" fill-rule="evenodd" clip-rule="evenodd" d="M0 3H20V22H0V3Z" fill="white"/>
</mask>
<g mask="url(#mask0_625_108039)">
<path id="Fill 1" fill-rule="evenodd" clip-rule="evenodd" d="M3.5716 4.47096C3.5716 4.55826 3.5716 4.62552 3.5716 4.69285C3.5716 9.57112 3.57137 14.4494 3.5719 19.3277C3.57196 20.0817 4.01668 20.5375 4.75128 20.5376C8.23986 20.5381 11.7284 20.5381 15.217 20.5377C15.9958 20.5375 16.4273 20.0925 16.4274 19.29C16.4277 14.4345 16.4275 9.57909 16.4275 4.72359V4.47096H3.5716ZM2.14319 4.46061C1.64469 4.46061 1.17029 4.46768 0.696175 4.45836C0.334093 4.45124 0.0407545 4.16507 0.00396801 3.80749C-0.0332955 3.44571 0.195294 3.1123 0.546644 3.02239C0.610677 3.00601 0.678944 3.0009 0.745243 3.0009C6.91149 2.99998 13.0778 2.99937 19.244 3.00108C19.786 3.00126 20.1373 3.50579 19.9485 3.9976C19.841 4.27738 19.5834 4.45727 19.2672 4.46013C18.8069 4.46433 18.3467 4.46122 17.856 4.46122V4.76109C17.856 9.61647 17.8568 14.4718 17.8554 19.3272C17.8551 20.6158 17.1044 21.6254 15.9207 21.9212C15.7137 21.973 15.4947 21.9959 15.2812 21.9961C11.7704 22.0006 8.25959 22.0009 4.74871 21.9985C3.23665 21.9976 2.1445 20.8815 2.14391 19.3362C2.14194 14.4808 2.14319 9.62542 2.14319 4.77004V4.46061Z" fill="black"/>
</g>
</g>
<g id="Group 6">
<mask id="mask1_625_108039" style="mask-type:luminance" maskUnits="userSpaceOnUse" x="7" y="0" width="7" height="2">
<path id="Clip 5" fill-rule="evenodd" clip-rule="evenodd" d="M7 0H14V2H7V0Z" fill="white"/>
</mask>
<g mask="url(#mask1_625_108039)">
<path id="Fill 4" fill-rule="evenodd" clip-rule="evenodd" d="M10.5102 0.000269825C11.4071 0.000269825 12.304 -0.000396409 13.2009 0.000519663C13.682 0.00101934 14.0029 0.406673 14 1.00695C13.9971 1.59532 13.6791 1.99889 13.2128 1.99922C11.4045 2.0003 9.59616 2.00022 7.78778 1.99922C7.32166 1.99889 7.003 1.59523 7.00002 1.00753C6.99692 0.404757 7.31552 0.00110262 7.79772 0.000519663C8.70191 -0.000479689 9.60604 0.000269825 10.5102 0.000269825Z" fill="black"/>
</g>
</g>
<path id="Fill 7" fill-rule="evenodd" clip-rule="evenodd" d="M7.00054 12.9901C7.00079 11.5694 6.99829 10.1486 7.00255 8.72794C7.00363 8.36306 7.3388 8.07771 7.81702 8.01209C8.26335 7.95093 8.73339 8.12632 8.90757 8.43647C8.96774 8.54363 8.99587 8.6672 8.99603 8.78328C9.00079 11.5949 9.00071 14.4066 8.9987 17.2183C8.99837 17.6746 8.58266 17.9965 8.00522 18C7.41617 18.0036 7.00138 17.6789 7.00088 17.2075C6.99929 15.8017 7.00029 14.3959 7.00054 12.9901Z" fill="black"/>
<path id="Fill 9" fill-rule="evenodd" clip-rule="evenodd" d="M12.9987 13.0123C12.9989 14.4256 13.0024 15.8388 12.997 17.252C12.9949 17.7843 12.3173 18.1348 11.658 17.9503C11.2639 17.84 11.0485 17.6251 11.0064 17.3246C10.995 17.2436 11.0023 17.1611 11.0023 17.0793C11.0021 14.357 11.0021 11.6346 11.0022 8.91228C11.0022 8.84535 10.9994 8.7783 11.0035 8.71149C11.0294 8.29675 11.4724 7.9903 12.0298 8.00023C12.5709 8.00993 12.9951 8.32049 12.9966 8.72803C13.0016 10.1561 12.9985 11.5842 12.9987 13.0123Z" fill="black"/>
</g>
</svg>
