<svg width="12" height="15" viewBox="0 0 12 15" fill="none" xmlns="http://www.w3.org/2000/svg">
<g id="1502309 copy 2">
<path id="Shape" fill-rule="evenodd" clip-rule="evenodd" d="M0.82044 11.9913H0.752958C0.553658 11.9925 0.3621 11.914 0.220598 11.7732C0.062417 11.6151 -0.0172952 11.3945 0.00315494 11.1714L0.32557 8.03489C0.35969 7.6913 0.510596 7.36994 0.752958 7.12476L7.50118 0.355208C8.0829 -0.137802 8.9406 -0.11516 9.49566 0.40786L11.5501 2.46881C12.1245 3.01772 12.1479 3.92928 11.6026 4.5072L4.85438 11.2767C4.60997 11.5199 4.28963 11.6713 3.94712 11.7055L0.82044 11.9913ZM0.00315494 14.2478C0.00315494 13.8324 0.338853 13.4957 0.752958 13.4957H11.2502C11.6643 13.4957 12 13.8324 12 14.2478C12 14.6632 11.6643 15 11.2502 15H0.752958C0.338853 15 0.00315494 14.6632 0.00315494 14.2478ZM8.45343 1.4609L10.5004 3.51433L9.00079 4.98107L6.99132 2.96525L8.45343 1.4609ZM6.00158 3.95811L1.78019 8.16276L1.57774 10.4117L3.82715 10.2011L8.02604 5.98898L6.00158 3.95811Z" fill="black"/>
</g>
</svg>
