<svg width="18" height="18" viewBox="0 0 18 18" fill="none" xmlns="http://www.w3.org/2000/svg">
<path id="Fill 1" fill-rule="evenodd" clip-rule="evenodd" d="M10.0636 8.98583C10.1353 8.92825 10.1897 8.89211 10.2351 8.84682C10.9195 8.16427 11.6024 7.4802 12.2864 6.79721C12.4748 6.60909 12.5826 6.38821 12.5422 6.11866C12.4957 5.80887 12.3202 5.5909 12.0225 5.49025C11.7147 5.38622 11.4457 5.4732 11.22 5.6983C10.5314 6.38497 9.84442 7.07326 9.15655 7.76067C9.10782 7.80936 9.05688 7.8558 9.00021 7.9097C8.94558 7.85774 8.89872 7.81502 8.85389 7.77027C8.17014 7.08704 7.48571 6.40448 6.80375 5.71947C6.61556 5.53047 6.39686 5.41863 6.12784 5.45586C5.8185 5.49865 5.59825 5.67169 5.49376 5.96869C5.38573 6.27571 5.46757 6.54694 5.69215 6.77285C6.38603 7.47081 7.08318 8.1655 7.77878 8.86173C7.82283 8.90582 7.86445 8.95236 7.9328 9.025C7.86407 9.07833 7.80314 9.11612 7.75364 9.16545C7.06489 9.85198 6.37643 10.5388 5.69085 11.2284C5.46602 11.4546 5.38608 11.7261 5.49461 12.0328C5.59972 12.3299 5.82036 12.5019 6.12984 12.5439C6.399 12.5803 6.6175 12.4674 6.80544 12.2787C7.48754 11.5938 8.17186 10.9112 8.85565 10.228C8.90033 10.1834 8.94744 10.1412 9.0006 10.0911C9.05404 10.1416 9.10111 10.184 9.14583 10.2287C9.8337 10.9161 10.5215 11.6036 11.2087 12.2916C11.3924 12.4755 11.6096 12.5796 11.8718 12.5436C12.1818 12.501 12.4012 12.3285 12.5055 12.0311C12.6131 11.724 12.5317 11.4532 12.3079 11.2266C11.8715 10.7849 11.431 10.3472 10.9915 9.90844C10.6935 9.61088 10.3943 9.31451 10.0636 8.98583ZM8.68359 0H9.31641C9.3966 0.0130781 9.47637 0.0301641 9.55705 0.0384609C9.83598 0.0671133 10.1179 0.0765 10.3939 0.122098C12.2339 0.425918 13.8429 1.20751 15.1894 2.50063C16.762 4.01091 17.6823 5.85186 17.9259 8.02431C17.9505 8.24407 17.9753 8.46383 18 8.68359V9.31641C17.9863 9.40809 17.9694 9.49943 17.9595 9.59154C17.9311 9.85873 17.9193 10.1284 17.8764 10.3932C17.6155 12.004 16.9791 13.452 15.9307 14.7033C14.3745 16.5606 12.3918 17.6481 9.9759 17.9257C9.75611 17.951 9.53624 17.9753 9.31641 18H8.68359C8.41117 17.9721 8.13772 17.9518 7.86649 17.9149C6.23225 17.6926 4.75235 17.0939 3.46194 16.0612C1.5062 14.4959 0.366293 12.4701 0.0738281 9.97566C0.0494297 9.7676 0.0246094 9.55958 0 9.35156C0 9.11718 0 8.88282 0 8.64844C0.0135352 8.56846 0.0296719 8.48886 0.0402187 8.4085C0.0933398 8.00353 0.116719 7.59231 0.201867 7.19427C0.707027 4.83289 1.96102 2.96054 3.94137 1.58404C5.1635 0.73452 6.52373 0.234703 8.00624 0.0752695C8.23212 0.0509766 8.45782 0.0251367 8.68359 0Z" fill="#FFA533"/>
</svg>
