<svg width="20" height="20" viewBox="0 0 20 20" fill="none" xmlns="http://www.w3.org/2000/svg">
<g id="Group 6">
<g id="Group 3">
<mask id="mask0_625_76492" style="mask-type:luminance" maskUnits="userSpaceOnUse" x="0" y="0" width="20" height="20">
<path id="Clip 2" fill-rule="evenodd" clip-rule="evenodd" d="M0 0H20V20H0V0Z" fill="white"/>
</mask>
<g mask="url(#mask0_625_76492)">
<path id="Fill 1" fill-rule="evenodd" clip-rule="evenodd" d="M10.1552 0C10.4859 0.128696 10.7276 0.332821 10.7454 0.716856C10.7639 1.11674 10.5002 1.4453 10.1017 1.49006C9.67544 1.53795 9.24364 1.54049 8.81889 1.59724C7.23844 1.8084 5.83085 2.43159 4.60714 3.44849C3.20616 4.61263 2.22578 6.06767 1.79207 7.84295C1.07825 10.7648 1.69612 13.3897 3.69066 15.6571C5.01115 17.1582 6.68006 18.0771 8.65366 18.3759C11.2494 18.7689 13.5712 18.1125 15.5676 16.3911C16.8854 15.2549 17.7817 13.8398 18.2032 12.1507C18.3548 11.5433 18.3939 10.9076 18.4806 10.2844C18.4966 10.1688 18.4879 10.05 18.5023 9.93409C18.5489 9.55861 18.8038 9.293 19.1465 9.25539C19.5166 9.21479 19.8204 9.40316 19.9579 9.7575C19.9692 9.78675 19.9858 9.81395 20 9.84213V10.5842C19.9879 10.6533 19.9741 10.7222 19.964 10.7916C19.9015 11.2221 19.8657 11.6584 19.7735 12.0824C19.2513 14.4834 18.018 16.4511 16.0617 17.9326C13.6282 19.7757 10.8874 20.3872 7.89903 19.7641C5.50699 19.2654 3.56222 18.012 2.07464 16.0787C0.468399 13.9913 -0.199871 11.614 0.0514765 8.99789C0.255118 6.87805 1.0783 5.00635 2.49117 3.40857C4.04006 1.65696 5.96952 0.566049 8.27573 0.1556C8.65209 0.0886348 9.03374 0.0511166 9.41293 0H10.1552Z" fill="black"/>
</g>
</g>
<path id="Fill 4" fill-rule="evenodd" clip-rule="evenodd" d="M8.92592 11.0562C8.99724 10.9533 9.0364 10.8744 9.09506 10.8153C12.2332 7.65672 15.3736 4.50036 18.5114 1.34141C18.7408 1.11048 18.9884 0.951769 19.3288 1.01334C19.9398 1.12394 20.2062 1.83216 19.8189 2.32143C19.7667 2.38729 19.7061 2.4467 19.6468 2.50637C16.2897 5.883 12.9323 9.25937 9.57478 12.6356C9.0846 13.1285 8.63967 13.1217 8.17503 12.6132C6.87178 11.1872 5.56816 9.76141 4.26685 8.33357C3.88578 7.91542 3.91753 7.36219 4.33208 7.06046C4.63572 6.83954 5.03508 6.85258 5.32122 7.09681C5.39034 7.15579 5.45247 7.22362 5.51397 7.29092C6.59946 8.47818 7.68453 9.66592 8.76892 10.8542C8.81086 10.9002 8.84587 10.9526 8.92592 11.0562Z" fill="black"/>
</g>
</svg>
