<?xml version="1.0" encoding="UTF-8"?>
<svg width="78px" height="54px" viewBox="0 0 78 54" version="1.1" xmlns="http://www.w3.org/2000/svg" xmlns:xlink="http://www.w3.org/1999/xlink">
    <title>ic-delivery_inactive</title>
    <g id="Desktop-Pages" stroke="none" stroke-width="1" fill="none" fill-rule="evenodd">
        <g id="D_01_Main-Order-Page_Meals-Added" transform="translate(-819, -245)" fill="#DFDFDF" fill-rule="nonzero">
            <path d="M893.437832,269.066851 L888.190949,266.796069 L883.735399,258.125809 C882.531197,255.75181 880.088385,254.272361 877.421937,254.289564 L869.749445,254.289564 L869.749445,252.121999 C869.749445,248.199739 866.618518,245 862.696258,245 L826.019685,245 C822.097425,245 819.000446,248.216941 819.000446,252.121999 L819.000446,285.323587 C818.966498,287.71479 820.876019,289.67592 823.267222,289.710325 C823.284424,289.710325 823.301627,289.710325 823.336033,289.710325 L824.247787,289.710325 C824.247787,289.882354 824.230584,289.951166 824.230584,290.054383 C824.213381,294.974412 828.18725,298.982686 833.107278,298.999945 C838.027306,299.017092 842.035581,295.043223 842.052783,290.123195 C842.052783,290.088789 842.052783,290.071586 842.052783,290.037181 C842.052783,289.91676 842.052783,289.865152 842.035581,289.693123 L871.67617,289.693123 C871.67617,289.865152 871.67617,289.933963 871.67617,290.037181 C871.658967,294.957209 875.632836,298.965483 880.552864,298.982686 C885.472892,298.999945 889.481166,295.02602 889.498369,290.105992 C889.498369,290.071586 889.498369,290.054383 889.498369,290.019978 C889.498369,289.899557 889.498369,289.847949 889.498369,289.67592 L891.717543,289.67592 C894.108745,289.67592 896.052673,287.731992 896.052673,285.34079 C896.052673,285.323587 896.052673,285.306384 896.052673,285.271978 L896.052673,273.057923 C896.087078,271.372039 895.054905,269.77217 893.437832,269.066851 Z M833.158886,295.576513 C830.131177,295.576513 827.688366,293.133702 827.688366,290.105992 C827.688366,287.078282 830.131177,284.635471 833.158886,284.635471 C836.186596,284.635471 838.629407,287.078282 838.629407,290.105992 C838.629407,293.116499 836.169393,295.576513 833.158886,295.576513 Z M866.308866,286.304152 L841.227044,286.304152 C839.782001,283.156022 836.616668,281.143284 833.158886,281.160486 C829.683902,281.143284 826.535772,283.138819 825.090728,286.304152 L823.336033,286.304152 C822.802743,286.304152 822.441483,285.891283 822.441483,285.357993 L822.441483,276.498502 L866.308866,276.498502 L866.308866,286.304152 Z M866.309002,252.139202 L866.309002,273.057923 L822.441483,273.057923 L822.441483,252.139202 C822.441483,250.126463 824.006946,248.457782 826.019685,248.457782 L862.696258,248.457782 C864.708997,248.474985 866.326069,250.126463 866.309002,252.121999 L866.309002,252.139202 Z M869.749445,257.747346 L877.421937,257.747346 C878.780965,257.730143 880.05398,258.469867 880.690487,259.691273 L884.131066,266.348793 L869.749445,266.348793 L869.749445,257.747346 L869.749445,257.747346 Z M880.604472,295.576513 C877.576763,295.576513 875.133952,293.133702 875.133952,290.105992 C875.133952,287.078282 877.576763,284.635471 880.604472,284.635471 C883.632182,284.635471 886.074993,287.078282 886.074993,290.105992 C886.074993,293.116499 883.632182,295.576513 880.604472,295.576513 Z M892.629296,285.357993 C892.629296,285.891283 892.268036,286.304152 891.734746,286.304152 L888.67263,286.304152 C886.59108,281.848602 881.292588,279.921878 876.837038,282.003428 C874.94472,282.880776 873.413662,284.411834 872.536314,286.304152 L869.749445,286.304152 L869.749445,269.789372 L886.608283,269.789372 L892.078804,272.197778 C892.422862,272.369807 892.646499,272.74827 892.629296,273.126734 L892.629296,285.357993 Z" id="ic-delivery_inactive"></path>
        </g>
    </g>
</svg>