<?xml version="1.0" encoding="UTF-8"?>
<svg width="24px" height="24px" viewBox="0 0 24 24" version="1.1" xmlns="http://www.w3.org/2000/svg" xmlns:xlink="http://www.w3.org/1999/xlink">
    <title>ic-hours</title>
    <g id="Desktop-Pages" stroke="none" stroke-width="1" fill="none" fill-rule="evenodd">
        <g id="D_01_Main-Order-Page_Meals-Added" transform="translate(-781, -854)" fill="#8A94A6" fill-rule="nonzero">
            <path d="M793.000062,878 C782.348308,877.989302 776.99051,865.040735 784.514865,857.494713 C788.981526,852.83544 797.018692,852.834689 801.485306,857.494901 C809.009614,865.04158 803.65116,877.989912 793.000062,878 Z M793.000062,855.853427 C787.417123,855.853427 782.875088,860.399902 782.875088,865.988299 C783.431259,879.433568 802.570881,879.429674 803.125036,865.988205 C803.125036,860.399949 798.582954,855.853427 793.000062,855.853427 Z M797.366082,869.031482 L794.404152,866.066657 C794.430215,865.628793 794.243653,865.210307 793.937091,864.93873 C793.937372,864.928923 793.93756,864.91907 793.93756,864.90917 L793.93756,859.419447 C793.88806,858.174359 792.111643,858.175298 792.062565,859.419447 L792.062565,864.90917 C792.062565,864.91907 792.062752,864.928923 792.063033,864.93873 C791.082645,865.817179 791.747706,867.462407 793.078296,867.393809 L796.040226,870.358635 C796.406319,870.725132 796.999942,870.725132 797.366035,870.358635 C797.732175,869.992137 797.732175,869.39798 797.366082,869.031482 L797.366082,869.031482 Z" id="ic-hours"></path>
        </g>
    </g>
</svg>