<?xml version="1.0" encoding="UTF-8"?>
<svg width="68px" height="60px" viewBox="0 0 68 60" version="1.1" xmlns="http://www.w3.org/2000/svg" xmlns:xlink="http://www.w3.org/1999/xlink">
    <title>ic-pickup_inactive</title>
    <g id="Desktop-Pages" stroke="none" stroke-width="1" fill="none" fill-rule="evenodd">
        <g id="D_01_Main-Order-Page_Meals-Added" transform="translate(-1013, -439)" fill="#DEDEDE" fill-rule="nonzero">
            <path d="M1079.78374,478.14798 C1078.37477,475.757947 1075.50317,474.657017 1072.85825,475.492845 L1069.80737,476.461817 L1069.80737,443.211593 C1069.80316,440.884361 1067.916,439 1065.58953,439 L1027.96456,439 C1025.63809,439 1023.75093,440.884361 1023.74672,443.211593 L1023.74672,472.204446 C1022.56758,472.429728 1021.37002,472.544669 1020.16957,472.547782 L1014.9068,472.547782 C1013.8537,472.547782 1013,473.401765 1013,474.455206 C1013,475.508648 1013.8537,476.362631 1014.9068,476.362631 L1020.16957,476.362631 C1024.18479,476.367094 1028.1305,475.31456 1031.61036,473.310752 L1046.33085,464.788379 C1047.575,464.228325 1049.04126,464.687698 1049.74377,465.857625 C1050.44627,467.027552 1050.16294,468.538193 1049.08427,469.373828 L1035.03497,477.64442 C1033.43089,478.59521 1032.65782,480.499581 1033.1451,482.299908 C1033.63238,484.100235 1035.26033,485.354315 1037.12483,485.365674 L1050.73938,485.365674 L1050.80039,485.365674 C1053.20299,485.368548 1055.59123,484.995263 1057.87843,484.259368 L1074.02521,479.071174 C1074.96644,478.774661 1075.98772,479.166864 1076.4888,480.017256 C1076.79813,480.535073 1076.86504,481.162501 1076.67185,481.733938 C1076.48665,482.310015 1076.061,482.777553 1075.50489,483.015728 L1054.24026,492.255292 C1053.95917,492.371258 1053.6644,492.450745 1053.36313,492.491812 L1033.53242,495.116428 C1032.23055,495.281886 1030.90845,495.075571 1029.71882,494.521312 L1021.76365,490.805649 C1020.07734,490.017074 1018.24029,489.603213 1016.37885,489.592527 L1014.9068,489.592527 C1013.8537,489.592527 1013,490.44651 1013,491.499952 C1013,492.553393 1013.8537,493.407376 1014.9068,493.407376 L1016.37885,493.407376 C1017.67989,493.411014 1018.96492,493.694646 1020.14668,494.239013 L1028.10185,497.985195 C1029.52169,498.652834 1031.07115,498.999299 1032.64003,498.999973 C1033.11216,499.001083 1033.58374,498.967933 1034.05107,498.900759 L1053.88178,496.283772 C1054.53471,496.202096 1055.17205,496.024711 1055.77333,495.757323 L1077.0227,486.540648 C1078.56922,485.867159 1079.75502,484.565615 1080.28229,482.962901 C1080.80956,481.360186 1080.62819,479.608573 1079.78374,478.14798 L1079.78374,478.14798 Z M1054.68419,442.789472 C1054.49841,447.028006 1051.01882,450.368416 1046.78946,450.368416 C1042.5601,450.368416 1039.08051,447.028006 1038.89473,442.789472 L1054.68419,442.789472 Z M1056.71892,480.398281 C1054.80609,481.00895 1052.80874,481.318523 1050.79943,481.31577 L1050.7536,481.31577 L1037.11969,481.31577 C1037.02202,481.316658 1036.92878,481.275336 1036.86426,481.202543 C1036.79973,481.129751 1036.7703,481.03269 1036.78362,480.936632 C1036.78114,480.815022 1036.84553,480.70171 1036.95166,480.640918 L1050.99802,472.451919 C1053.98136,470.598794 1054.94311,466.728696 1053.17026,463.710779 C1051.3974,460.692862 1047.53077,459.61799 1044.43694,461.283034 L1029.68788,469.752582 C1028.99094,470.154126 1028.26895,470.511221 1027.52631,470.821702 L1027.52631,443.18383 C1027.52631,443.077932 1027.56918,442.976478 1027.64533,442.902313 C1027.72147,442.828148 1027.82447,442.787508 1027.93113,442.789472 L1035.06506,442.789472 C1035.06506,449.217584 1040.31425,454.428539 1046.78946,454.428539 C1053.26467,454.428539 1058.51386,449.217584 1058.51386,442.789472 L1065.64779,442.789472 C1065.75445,442.787508 1065.85744,442.828148 1065.93359,442.902313 C1066.00974,442.976478 1066.05261,443.077932 1066.05261,443.18383 L1066.05261,477.418395 L1056.71892,480.398281 Z" id="ic-pickup_inactive"></path>
        </g>
    </g>
</svg>