<svg width="20" height="20" viewBox="0 0 20 20" fill="none" xmlns="http://www.w3.org/2000/svg">
<g id="436971">
<path id="profile_round-[#1346]" fill-rule="evenodd" clip-rule="evenodd" d="M16.1252 20H17.9462C19.2222 20 20.2262 18.857 19.9562 17.636C19.2132 14.277 16.8922 11.798 13.8362 10.673C15.4562 9.39598 16.4002 7.33098 16.0542 5.06998C15.6502 2.44698 13.4232 0.347977 10.7342 0.041977C7.02319 -0.381023 3.87519 2.44898 3.87519 5.99998C3.87519 7.88998 4.77019 9.57398 6.16419 10.673C3.10819 11.798 0.78719 14.277 0.0441897 17.636C-0.22581 18.857 0.77819 20 2.05419 20H3.87619C4.43919 20 4.89619 19.552 4.89619 19C4.89619 18.448 4.43919 18 3.87519 18H3.43719C2.73119 18 2.20919 17.303 2.47719 16.662C3.71319 13.698 6.61619 12 10.0002 12C13.3832 12 16.2872 13.698 17.5232 16.662C17.7912 17.303 17.2692 18 16.5632 18H16.1242C15.5612 18 15.1042 18.448 15.1042 19C15.1068 19.268 15.2159 19.524 15.4074 19.7116C15.5989 19.8992 15.8571 20.0029 16.1252 20ZM10.0002 1.99998C12.2522 1.99998 14.0832 3.79398 14.0832 5.99998C14.0832 8.20598 12.2522 9.99998 10.0002 9.99998C7.74819 9.99998 5.91719 8.20598 5.91719 5.99998C5.91719 3.79398 7.74819 1.99998 10.0002 1.99998Z" fill="#FDFDFD"/>
<rect id="Rectangle" x="7" y="18" width="6" height="2" rx="1" fill="#4CAF4F"/>
</g>
</svg>
