<svg width="15" height="20" viewBox="0 0 15 20" fill="none" xmlns="http://www.w3.org/2000/svg">
<g id="Group 12">
<path id="Fill 4" fill-rule="evenodd" clip-rule="evenodd" d="M9.99442 14.8931C10.7885 13.8525 11.5939 12.8209 12.3716 11.767C13.3384 10.4568 13.7368 8.95894 13.616 7.31205C13.3991 4.35401 11.3227 2.0356 8.50338 1.53124C7.26579 1.3093 6.06877 1.46171 4.92325 2.00893C4.73135 2.10037 4.54354 2.17371 4.32975 2.10561C4.05534 2.01797 3.86344 1.78461 3.83609 1.49695C3.80782 1.20548 3.95415 0.92687 4.22309 0.787803C4.83756 0.47014 5.48393 0.249157 6.15902 0.124378C10.2356 -0.628108 14.0819 2.10656 14.8541 6.35858C15.2908 8.76463 14.7419 10.9497 13.2796 12.8695C11.5557 15.1327 9.82439 17.3901 8.09906 19.6523C7.76128 20.0953 7.26625 20.12 6.94397 19.6976C5.36906 17.6335 3.7978 15.5665 2.2165 13.5077C1.60112 12.7061 0.985291 11.9079 0.609683 10.943C-0.252758 8.72748 -0.203072 6.5367 0.776974 4.37259C0.919195 4.05826 1.18312 3.89728 1.47349 3.92634C1.74745 3.95396 2.00864 4.15303 2.04784 4.44165C2.07383 4.63405 2.04465 4.86218 1.96625 5.0384C1.56511 5.94424 1.34814 6.89104 1.35908 7.88832C1.3764 9.4652 1.90015 10.843 2.84875 12.0665C4.36713 14.0254 5.8641 16.0023 7.37063 17.9712C7.40983 18.0226 7.45268 18.0702 7.51149 18.1402C8.35113 17.0424 9.17346 15.9685 9.99442 14.8931Z" fill="#FDFDFD"/>
<path id="Fill 6" fill-rule="evenodd" clip-rule="evenodd" d="M10.5046 7.51373C10.5026 5.85805 9.15511 4.49494 7.52024 4.49644C5.84977 4.49745 4.49123 5.84403 4.49324 7.49669C4.49524 9.17741 5.84626 10.5185 7.52877 10.511C9.17115 10.5035 10.5061 9.15838 10.5046 7.51373ZM7.65514 11.9978C5.21188 12.072 3.13871 10.248 3.00531 7.64147C2.88495 5.27343 4.82523 3.14736 7.26498 3.00709C9.6922 2.86782 11.8556 4.79852 11.9925 7.21716C12.1335 9.69992 10.2609 11.9041 7.65514 11.9978Z" fill="#EF5897"/>
<path id="Fill 8" fill-rule="evenodd" clip-rule="evenodd" d="M3.94784 2.22358C4.02439 2.37828 4.02118 2.54215 3.9081 2.67821C3.79824 2.81013 3.69217 2.95389 3.50605 2.99116C3.18347 3.05564 2.91992 2.75689 3.02248 2.44039C3.08968 2.23304 3.37749 2.00203 3.57033 2.00055C3.74331 1.99257 3.87245 2.07154 3.94784 2.22358Z" fill="#EF5897"/>
</g>
</svg>
