<svg width="16" height="16" viewBox="0 0 16 16" fill="none" xmlns="http://www.w3.org/2000/svg">
<g id="Group 8">
<g id="Group 3">
<mask id="mask0_625_107345" style="mask-type:luminance" maskUnits="userSpaceOnUse" x="0" y="0" width="16" height="16">
<path id="Clip 2" fill-rule="evenodd" clip-rule="evenodd" d="M0 0H16V16H0V0Z" fill="white"/>
</mask>
<g mask="url(#mask0_625_107345)">
<path id="Fill 1" fill-rule="evenodd" clip-rule="evenodd" d="M1.39125 4.99457H6.98622V1.0025C6.93658 1.0025 6.89937 1.0025 6.86212 1.0025C5.95162 1.0025 5.04112 1.0048 4.13062 1.00093C3.88878 0.999931 3.72305 1.10094 3.60078 1.30792C3.23181 1.93271 2.85501 2.55285 2.48169 3.17513C2.12241 3.77388 1.76374 4.37299 1.39125 4.99457ZM8.01451 1.00245V4.997H13.6015C13.5825 4.95662 13.5719 4.92768 13.5563 4.90169C12.8293 3.68887 12.102 2.47618 11.3742 1.2638C11.2675 1.08595 11.1088 1.00124 10.901 1.0021C10.516 1.00376 10.131 1.0025 9.74606 1.0025C9.17193 1.00245 8.59781 1.00245 8.01451 1.00245ZM14.9977 11.4938C14.9957 9.56836 13.4239 8.0004 11.4968 8.00158C9.57146 8.00275 8.00151 9.57384 8.00116 11.4997C8.00082 13.4331 9.57524 15.0031 11.5108 14.9996C13.4353 14.996 14.9998 13.4231 14.9977 11.4938ZM13.9888 6.01493H1.00384C1.00384 6.08138 1.00384 6.13484 1.00384 6.1883C1.00384 8.59103 1.00376 10.9938 1.00393 13.3966C1.00393 13.8169 1.18566 13.9983 1.60848 13.9984C3.59322 13.9987 5.57796 13.9986 7.56269 13.9982C7.6188 13.9982 7.67487 13.9928 7.73946 13.9895C6.47372 11.9997 6.95479 9.73187 8.17946 8.48207C9.89841 6.72782 11.8657 6.58309 13.9888 7.71311V6.01493ZM0.000805822 9.53337C0.000805822 8.22602 -0.00306255 6.91867 0.006152 5.61141C0.00719516 5.46254 0.0513555 5.29612 0.127071 5.16842C0.994934 3.70486 1.87362 2.24778 2.74757 0.787827C3.0653 0.25709 3.53215 -0.000129855 4.14814 0.000130928C6.38266 0.00117406 8.61719 0.00143485 10.8517 5.36763e-07C11.475 -0.000434102 11.9427 0.263088 12.263 0.798998C13.1304 2.2503 14.0038 3.69808 14.8656 5.15273C14.9438 5.28473 14.9907 5.45576 14.9925 5.60932C15.0038 6.58561 14.9961 7.56211 15.002 8.53853C15.0024 8.62211 15.0363 8.71986 15.0868 8.78671C17.1471 11.5129 15.5307 15.4562 12.1448 15.9497C10.9152 16.1289 9.80335 15.8257 8.79953 15.0995C8.72325 15.0443 8.61567 15.0048 8.52253 15.0046C6.20124 14.9994 3.87996 15.0017 1.55867 14.9998C0.804862 14.9992 0.212523 14.5462 0.0470524 13.8417C0.0127587 13.6957 0.00310946 13.541 0.00271828 13.3903C-0.000628518 12.1047 0.000805822 10.819 0.000805822 9.53337Z" fill="white"/>
</g>
</g>
<path id="Fill 4" fill-rule="evenodd" clip-rule="evenodd" d="M4.49391 7.99934C4.17398 7.9993 3.85401 8.00118 3.53407 7.99877C3.22211 7.99641 3.00277 7.79121 3.00003 7.50451C2.9972 7.21174 3.21963 7.00221 3.54108 7.00133C4.18099 6.99958 4.8209 6.99954 5.46081 7.00129C5.78553 7.00221 6.00164 7.20614 5.99999 7.50342C5.99834 7.79913 5.78144 7.99733 5.45376 7.99904C5.13382 8.0007 4.81385 7.99939 4.49391 7.99934Z" fill="#4CAF4F"/>
<path id="Fill 6" fill-rule="evenodd" clip-rule="evenodd" d="M10.9726 12.6486C11.7075 11.8083 12.3943 11.0161 13.0908 10.2351C13.1851 10.1293 13.3209 10.044 13.4494 10.0121C13.6521 9.96178 13.8225 10.0719 13.9276 10.2785C14.0317 10.4834 14.0221 10.694 13.9081 10.8928C13.8759 10.949 13.8313 10.9967 13.7892 11.0448C12.9998 11.9479 12.2102 12.8508 11.4201 13.753C11.1318 14.0823 10.8649 14.0821 10.5774 13.7538C10.1056 13.2151 9.63422 12.676 9.16289 12.1367C9.01125 11.9632 8.96223 11.7576 9.02957 11.5239C9.09111 11.3101 9.22826 11.1876 9.41878 11.149C9.6053 11.1112 9.75654 11.1953 9.88655 11.3447C10.2116 11.7181 10.5391 12.0888 10.863 12.4635C10.9043 12.5112 10.9304 12.5761 10.9726 12.6486Z" fill="#4CAF4F"/>
</g>
</svg>
