<svg width="26" height="26" viewBox="0 0 26 26" fill="none" xmlns="http://www.w3.org/2000/svg">
<g id="Group 8 Copy">
<g id="Group 3">
<mask id="mask0_625_107356" style="mask-type:luminance" maskUnits="userSpaceOnUse" x="0" y="0" width="26" height="26">
<path id="Clip 2" fill-rule="evenodd" clip-rule="evenodd" d="M0 0H26V26H0V0Z" fill="white"/>
</mask>
<g mask="url(#mask0_625_107356)">
<path id="Fill 1" fill-rule="evenodd" clip-rule="evenodd" d="M2.26078 8.11617H11.3526V1.62906C11.2719 1.62906 11.2115 1.62906 11.151 1.62906C9.67139 1.62906 8.19182 1.6328 6.71226 1.62651C6.31927 1.62489 6.04996 1.78903 5.85127 2.12536C5.25169 3.14065 4.6394 4.14839 4.03275 5.15958C3.44892 6.13256 2.86608 7.10611 2.26078 8.11617ZM13.0236 1.62898V8.12013H22.1024C22.0716 8.05452 22.0543 8.00748 22.029 7.96524C20.8476 5.99441 19.6658 4.0238 18.4831 2.05368C18.3096 1.76466 18.0518 1.62701 17.7141 1.62842C17.0886 1.6311 16.4629 1.62906 15.8373 1.62906C14.9044 1.62898 13.9714 1.62898 13.0236 1.62898ZM24.3713 18.6774C24.3681 15.5486 21.8138 13.0007 18.6823 13.0026C15.5536 13.0045 13.0025 15.5575 13.0019 18.6871C13.0013 21.8288 15.5598 24.38 18.7051 24.3743C21.8323 24.3685 24.3747 21.8126 24.3713 18.6774ZM22.7317 9.77426H1.63125C1.63125 9.88225 1.63125 9.96912 1.63125 10.056C1.63125 13.9604 1.63111 17.8649 1.63139 21.7694C1.63139 22.4525 1.92669 22.7472 2.61379 22.7474C5.83898 22.7479 9.06418 22.7477 12.2894 22.747C12.3806 22.747 12.4717 22.7383 12.5766 22.733C10.5198 19.4995 11.3015 15.8143 13.2916 13.7834C16.0849 10.9327 19.2818 10.6975 22.7317 12.5338V9.77426ZM0.00130946 15.4917C0.00130946 13.3673 -0.00497664 11.2428 0.009997 9.11854C0.0116921 8.87663 0.0834526 8.6062 0.206491 8.39869C1.61677 6.0204 3.04463 3.65264 4.4648 1.28022C4.98111 0.417771 5.73975 -0.000211014 6.74072 0.000212759C10.3718 0.00190785 14.0029 0.00233162 17.634 8.7224e-07C18.6468 -0.000705416 19.4069 0.427517 19.9273 1.29837C21.3368 3.65674 22.7562 6.00939 24.1566 8.37319C24.2837 8.58769 24.36 8.86562 24.3629 9.11515C24.3812 10.7016 24.3687 12.2884 24.3782 13.8751C24.379 14.0109 24.4339 14.1698 24.516 14.2784C27.864 18.7085 25.2374 25.1164 19.7354 25.9182C17.7372 26.2094 15.9304 25.7168 14.2992 24.5367C14.1753 24.447 14.0005 24.3828 13.8491 24.3825C10.077 24.374 6.30493 24.3777 2.53284 24.3747C1.3079 24.3737 0.34535 23.6376 0.0764602 22.4927C0.0207328 22.2555 0.00505287 22.0041 0.0044172 21.7592C-0.00102134 19.6701 0.00130946 17.5809 0.00130946 15.4917Z" fill="black"/>
</g>
</g>
<path id="Fill 4" fill-rule="evenodd" clip-rule="evenodd" d="M6.48986 13.9987C5.95664 13.9986 5.42334 14.0024 4.89012 13.9975C4.37018 13.9928 4.00461 13.5824 4.00004 13.009C3.99533 12.4235 4.36604 12.0044 4.9018 12.0027C5.96832 11.9992 7.03483 11.9991 8.10134 12.0026C8.64255 12.0044 9.00274 12.4123 8.99998 13.0068C8.99723 13.5983 8.63573 13.9947 8.08959 13.9981C7.55637 14.0014 7.02308 13.9988 6.48986 13.9987Z" fill="#4CAF4F"/>
<path id="Fill 6" fill-rule="evenodd" clip-rule="evenodd" d="M18.1561 19.9729C19.3321 18.7125 20.4309 17.5241 21.5452 16.3526C21.6962 16.1939 21.9134 16.0659 22.119 16.0181C22.4434 15.9427 22.716 16.1079 22.8841 16.4178C23.0508 16.7251 23.0353 17.0411 22.853 17.3392C22.8014 17.4235 22.7301 17.4951 22.6628 17.5672C21.3997 18.9219 20.1364 20.2762 18.8722 21.6296C18.4108 22.1234 17.9839 22.1232 17.5239 21.6307C16.769 20.8227 16.0148 20.0139 15.2606 19.205C15.018 18.9448 14.9396 18.6364 15.0473 18.2858C15.1458 17.9651 15.3652 17.7814 15.6701 17.7235C15.9685 17.6668 16.2105 17.793 16.4185 18.0171C16.9386 18.5771 17.4625 19.1332 17.9808 19.6952C18.0468 19.7668 18.0886 19.8642 18.1561 19.9729Z" fill="#4CAF4F"/>
</g>
</svg>
