<svg width="42" height="28" viewBox="0 0 42 28" fill="none" xmlns="http://www.w3.org/2000/svg">
<g id="2882358">
<path id="Shape" fill-rule="evenodd" clip-rule="evenodd" d="M4.60526 0H30.3947C32.9382 0 35 1.98028 35 4.42308V7.96154C35 8.4501 34.5876 8.84615 34.0789 8.84615H1.84211V18.5769C1.84211 20.0426 3.07921 21.2308 4.60526 21.2308H19.3421C19.8508 21.2308 20.2632 21.6268 20.2632 22.1154C20.2632 22.6039 19.8508 23 19.3421 23H4.60526C2.06185 23 0 21.0197 0 18.5769V4.42308C0 1.98028 2.06185 0 4.60526 0ZM4.60526 1.76923C3.07921 1.76923 1.84211 2.9574 1.84211 4.42308V7.07692H33.1579V4.42308C33.1579 2.9574 31.9208 1.76923 30.3947 1.76923H4.60526Z" fill="#404042"/>
<path id="Shape_2" fill-rule="evenodd" clip-rule="evenodd" d="M24 19C24 14.0294 28.0294 10 33 10C37.966 10.011 41.989 14.034 42 19C42 23.9706 37.9706 28 33 28C28.0294 28 24 23.9706 24 19ZM26 19C26 22.866 29.134 26 33 26C36.866 26 40 22.866 40 19C40 15.134 36.866 12 33 12C29.134 12 26 15.134 26 19Z" fill="#EF5897"/>
<path id="Path" d="M37 19.5C37 20.1443 36.4777 20.6667 35.8333 20.6667H34.6667V21.8333C34.6667 22.4777 34.1443 23 33.5 23C32.8557 23 32.3333 22.4777 32.3333 21.8333V20.6667H31.1667C30.5223 20.6667 30 20.1443 30 19.5C30 18.8557 30.5223 18.3333 31.1667 18.3333H32.3333V17.1667C32.3333 16.5223 32.8557 16 33.5 16C34.1443 16 34.6667 16.5223 34.6667 17.1667V18.3333H35.8333C36.4777 18.3333 37 18.8557 37 19.5Z" fill="#EF5897"/>
</g>
</svg>
