<svg width="18" height="12" viewBox="0 0 18 12" fill="none" xmlns="http://www.w3.org/2000/svg">
<g id="2882358">
<path id="Shape" fill-rule="evenodd" clip-rule="evenodd" d="M1.97368 0H13.0263C14.1164 0 15 0.860991 15 1.92308V3.46154C15 3.67396 14.8233 3.84615 14.6053 3.84615H0.789474V8.07692C0.789474 8.71418 1.31966 9.23077 1.97368 9.23077H8.28947C8.50748 9.23077 8.68421 9.40297 8.68421 9.61539C8.68421 9.8278 8.50748 10 8.28947 10H1.97368C0.883649 10 0 9.13901 0 8.07692V1.92308C0 0.860991 0.883649 0 1.97368 0ZM1.97368 0.769231C1.31966 0.769231 0.789474 1.28583 0.789474 1.92308V3.07692H14.2105V1.92308C14.2105 1.28583 13.6803 0.769231 13.0263 0.769231H1.97368Z" fill="white"/>
<path id="Shape_2" fill-rule="evenodd" clip-rule="evenodd" d="M11 8.5C11 6.567 12.567 5 14.5 5C16.4312 5.00428 17.9957 6.56878 18 8.5C18 10.433 16.433 12 14.5 12C12.567 12 11 10.433 11 8.5ZM11.7778 8.5C11.7778 10.0034 12.9966 11.2222 14.5 11.2222C16.0034 11.2222 17.2222 10.0034 17.2222 8.5C17.2222 6.99656 16.0034 5.77778 14.5 5.77778C12.9966 5.77778 11.7778 6.99656 11.7778 8.5Z" fill="#EF5897"/>
<path id="Path" d="M16 8.5C16 8.77614 15.7761 9 15.5 9H15V9.5C15 9.77614 14.7761 10 14.5 10C14.2239 10 14 9.77614 14 9.5V9H13.5C13.2239 9 13 8.77614 13 8.5C13 8.22386 13.2239 8 13.5 8H14V7.5C14 7.22386 14.2239 7 14.5 7C14.7761 7 15 7.22386 15 7.5V8H15.5C15.7761 8 16 8.22386 16 8.5Z" fill="#EF5897"/>
</g>
</svg>
