<svg width="19" height="16" viewBox="0 0 19 16" fill="none" xmlns="http://www.w3.org/2000/svg">
<g id="Group 6">
<g id="Group 3">
<mask id="mask0_625_107316" style="mask-type:luminance" maskUnits="userSpaceOnUse" x="0" y="0" width="19" height="16">
<path id="Clip 2" fill-rule="evenodd" clip-rule="evenodd" d="M0 0H19V16H0V0Z" fill="white"/>
</mask>
<g mask="url(#mask0_625_107316)">
<path id="Fill 1" fill-rule="evenodd" clip-rule="evenodd" d="M17.6852 5.44756C17.6789 5.36109 17.669 5.22448 17.6591 5.08792C17.5022 2.92414 15.7994 1.33683 13.6077 1.33852C12.2166 1.33962 11.0334 1.85093 10.07 2.84885C9.71609 3.21544 9.30132 3.21977 8.95362 2.85597C8.04392 1.9042 6.92381 1.4073 5.60583 1.34006C3.78105 1.24696 2.18638 2.27013 1.60562 3.97998C0.987323 5.80051 1.38699 7.44355 2.72883 8.8125C4.45469 10.5731 6.22957 12.2868 7.9864 14.0176C8.11781 14.1471 8.26321 14.2692 8.42043 14.3654C9.27301 14.8873 10.2918 14.7489 11.0372 14.0133C12.7829 12.2908 14.53 10.5696 16.2691 8.84066C17.1959 7.91925 17.6542 6.79546 17.6852 5.44756ZM9.5079 1.54593C10.1011 1.03434 10.7487 0.648791 11.4684 0.380065C13.6871 -0.448416 16.1408 0.101475 17.6457 1.7963C18.6438 2.92047 19.0566 4.25961 18.9938 5.74237C18.9248 7.37018 18.2713 8.7366 17.0991 9.88137C15.3939 11.5467 13.7084 13.2317 12.0139 14.9079C10.5422 16.3637 8.47279 16.3639 7.00425 14.9095C5.19828 13.1209 3.36772 11.3558 1.59257 9.53785C-0.391885 7.50553 -0.53956 4.11702 1.24959 1.94299C2.46424 0.466918 4.09266 -0.115194 5.9894 0.034677C7.32159 0.139943 8.48394 0.666819 9.5079 1.54593Z" fill="white"/>
</g>
</g>
<path id="Fill 4" fill-rule="evenodd" clip-rule="evenodd" d="M15.9998 5.22242C16.0119 5.76074 15.5223 6.11394 14.9686 5.96625C14.6337 5.87694 14.4099 5.64494 14.4025 5.34789C14.3787 4.38878 13.7414 3.78603 12.7665 3.37641C12.648 3.32658 12.5182 3.29431 12.4028 3.24033C12.0538 3.07714 11.9087 2.7195 12.0589 2.41291C12.2083 2.10775 12.6202 1.93674 13.0009 2.02177C14.641 2.38802 15.9677 3.80392 15.9998 5.22242Z" fill="#4CAF4F"/>
</g>
</svg>
