<svg width="24" height="20" viewBox="0 0 24 20" fill="none" xmlns="http://www.w3.org/2000/svg">
<g id="Group 6">
<g id="Group 3">
<mask id="mask0_625_75488" style="mask-type:luminance" maskUnits="userSpaceOnUse" x="0" y="0" width="24" height="20">
<path id="Clip 2" fill-rule="evenodd" clip-rule="evenodd" d="M0 0H24V20H0V0Z" fill="white"/>
</mask>
<g mask="url(#mask0_625_75488)">
<path id="Fill 1" fill-rule="evenodd" clip-rule="evenodd" d="M22.3394 6.80966C22.3315 6.70157 22.319 6.53081 22.3065 6.36012C22.1083 3.65539 19.9574 1.67125 17.1889 1.67337C15.4317 1.67474 13.9372 2.31388 12.7202 3.56128C12.2732 4.01952 11.7493 4.02493 11.3101 3.57018C10.161 2.38046 8.74614 1.75933 7.08133 1.67529C4.77634 1.55891 2.76202 2.83788 2.02843 4.97518C1.24742 7.25085 1.75227 9.30465 3.44723 11.0158C5.62726 13.2166 7.86921 15.3587 10.0884 17.5223C10.2544 17.6841 10.438 17.8367 10.6366 17.957C11.7136 18.6094 13.0004 18.4363 13.942 17.5169C16.1471 15.3637 18.354 13.2123 20.5507 11.051C21.7214 9.89927 22.3004 8.49454 22.3394 6.80966ZM12.01 1.93242C12.7593 1.29293 13.5773 0.810988 14.4864 0.475081C17.289 -0.56052 20.3884 0.126844 22.2893 2.24538C23.5501 3.65059 24.0716 5.32451 23.9922 7.17796C23.905 9.21272 23.0795 10.9208 21.5989 12.3517C19.4449 14.4333 17.3158 16.5397 15.1754 18.6348C13.3164 20.4546 10.7025 20.4549 8.84748 18.6368C6.56625 16.4011 4.25397 14.1948 2.01167 11.9223C-0.495012 9.38191 -0.681549 5.14628 1.57842 2.42874C3.11273 0.583648 5.16968 -0.143992 7.56556 0.0433462C9.24832 0.174928 10.7166 0.833524 12.01 1.93242Z" fill="#404042"/>
</g>
</g>
<path id="Fill 4" fill-rule="evenodd" clip-rule="evenodd" d="M20.9997 6.02803C21.0149 6.70093 20.4029 7.14242 19.7108 6.95781C19.2921 6.84617 19.0124 6.55617 19.0031 6.18487C18.9734 4.98598 18.1768 4.23254 16.9582 3.72051C16.81 3.65823 16.6477 3.61789 16.5035 3.55041C16.0673 3.34643 15.8859 2.89938 16.0736 2.51613C16.2604 2.13469 16.7753 1.92092 17.2511 2.02722C19.3013 2.48503 20.9596 4.2549 20.9997 6.02803Z" fill="#4CAF4F"/>
</g>
</svg>
